ISO-10303-21;
HEADER;
/* Generated by software containing ST-Developer
 * from STEP Tools, Inc. (www.steptools.com) 
 */

FILE_DESCRIPTION(
/* description */ (''),
/* implementation_level */ '2;1');

FILE_NAME(
/* name */ '',
/* time_stamp */ '2026-08-03T20:17:00+08:00',
/* author */ (''),
/* organization */ (''),
/* preprocessor_version */ 'ST-DEVELOPER v20.1',
/* originating_system */ 'Autodesk Translation Framework v15.8.0.0',
/* authorisation */ '');

FILE_SCHEMA (('AUTOMOTIVE_DESIGN { 1 0 10303 214 3 1 1 }'));
ENDSEC;

DATA;
#10=MECHANICAL_DESIGN_GEOMETRIC_PRESENTATION_REPRESENTATION('',(#13),#589);
#11=SHAPE_REPRESENTATION_RELATIONSHIP('SRR','None',#596,#12);
#12=ADVANCED_BREP_SHAPE_REPRESENTATION('',(#14),#588);
#13=STYLED_ITEM('',(#605),#14);
#14=MANIFOLD_SOLID_BREP('\X2\5B9E4F53\X0\1',#337);
#15=FACE_BOUND('',#59,.T.);
#16=FACE_BOUND('',#80,.T.);
#17=FACE_BOUND('',#81,.T.);
#18=FACE_BOUND('',#82,.T.);
#19=FACE_BOUND('',#83,.T.);
#20=FACE_BOUND('',#84,.T.);
#21=PLANE('',#354);
#22=PLANE('',#359);
#23=PLANE('',#363);
#24=PLANE('',#367);
#25=PLANE('',#371);
#26=PLANE('',#374);
#27=PLANE('',#381);
#28=PLANE('',#382);
#29=PLANE('',#383);
#30=PLANE('',#384);
#31=PLANE('',#385);
#32=PLANE('',#386);
#33=PLANE('',#387);
#34=PLANE('',#388);
#35=FACE_OUTER_BOUND('',#57,.T.);
#36=FACE_OUTER_BOUND('',#58,.T.);
#37=FACE_OUTER_BOUND('',#60,.T.);
#38=FACE_OUTER_BOUND('',#61,.T.);
#39=FACE_OUTER_BOUND('',#62,.T.);
#40=FACE_OUTER_BOUND('',#63,.T.);
#41=FACE_OUTER_BOUND('',#64,.T.);
#42=FACE_OUTER_BOUND('',#65,.T.);
#43=FACE_OUTER_BOUND('',#66,.T.);
#44=FACE_OUTER_BOUND('',#67,.T.);
#45=FACE_OUTER_BOUND('',#68,.T.);
#46=FACE_OUTER_BOUND('',#69,.T.);
#47=FACE_OUTER_BOUND('',#70,.T.);
#48=FACE_OUTER_BOUND('',#71,.T.);
#49=FACE_OUTER_BOUND('',#72,.T.);
#50=FACE_OUTER_BOUND('',#73,.T.);
#51=FACE_OUTER_BOUND('',#74,.T.);
#52=FACE_OUTER_BOUND('',#75,.T.);
#53=FACE_OUTER_BOUND('',#76,.T.);
#54=FACE_OUTER_BOUND('',#77,.T.);
#55=FACE_OUTER_BOUND('',#78,.T.);
#56=FACE_OUTER_BOUND('',#79,.T.);
#57=EDGE_LOOP('',(#223,#224,#225,#226));
#58=EDGE_LOOP('',(#227));
#59=EDGE_LOOP('',(#228));
#60=EDGE_LOOP('',(#229,#230,#231,#232));
#61=EDGE_LOOP('',(#233));
#62=EDGE_LOOP('',(#234,#235,#236,#237));
#63=EDGE_LOOP('',(#238));
#64=EDGE_LOOP('',(#239,#240,#241,#242));
#65=EDGE_LOOP('',(#243));
#66=EDGE_LOOP('',(#244,#245,#246,#247));
#67=EDGE_LOOP('',(#248));
#68=EDGE_LOOP('',(#249,#250,#251,#252));
#69=EDGE_LOOP('',(#253));
#70=EDGE_LOOP('',(#254,#255,#256,#257));
#71=EDGE_LOOP('',(#258,#259,#260,#261));
#72=EDGE_LOOP('',(#262,#263,#264,#265));
#73=EDGE_LOOP('',(#266,#267,#268,#269));
#74=EDGE_LOOP('',(#270,#271,#272,#273));
#75=EDGE_LOOP('',(#274,#275,#276,#277));
#76=EDGE_LOOP('',(#278,#279,#280,#281));
#77=EDGE_LOOP('',(#282,#283,#284,#285));
#78=EDGE_LOOP('',(#286,#287,#288,#289,#290,#291,#292,#293));
#79=EDGE_LOOP('',(#294,#295,#296,#297,#298,#299,#300,#301));
#80=EDGE_LOOP('',(#302));
#81=EDGE_LOOP('',(#303));
#82=EDGE_LOOP('',(#304));
#83=EDGE_LOOP('',(#305));
#84=EDGE_LOOP('',(#306));
#85=LINE('',#498,#111);
#86=LINE('',#507,#112);
#87=LINE('',#514,#113);
#88=LINE('',#521,#114);
#89=LINE('',#528,#115);
#90=LINE('',#534,#116);
#91=LINE('',#541,#117);
#92=LINE('',#544,#118);
#93=LINE('',#550,#119);
#94=LINE('',#553,#120);
#95=LINE('',#555,#121);
#96=LINE('',#556,#122);
#97=LINE('',#559,#123);
#98=LINE('',#561,#124);
#99=LINE('',#562,#125);
#100=LINE('',#565,#126);
#101=LINE('',#567,#127);
#102=LINE('',#568,#128);
#103=LINE('',#571,#129);
#104=LINE('',#573,#130);
#105=LINE('',#574,#131);
#106=LINE('',#577,#132);
#107=LINE('',#579,#133);
#108=LINE('',#580,#134);
#109=LINE('',#582,#135);
#110=LINE('',#583,#136);
#111=VECTOR('',#395,6.6);
#112=VECTOR('',#406,3.75);
#113=VECTOR('',#415,3.75);
#114=VECTOR('',#424,3.75);
#115=VECTOR('',#433,3.75);
#116=VECTOR('',#442,3.);
#117=VECTOR('',#449,10.);
#118=VECTOR('',#452,10.);
#119=VECTOR('',#457,10.);
#120=VECTOR('',#460,10.);
#121=VECTOR('',#463,10.);
#122=VECTOR('',#464,10.);
#123=VECTOR('',#467,10.);
#124=VECTOR('',#468,10.);
#125=VECTOR('',#469,10.);
#126=VECTOR('',#472,10.);
#127=VECTOR('',#473,10.);
#128=VECTOR('',#474,10.);
#129=VECTOR('',#477,10.);
#130=VECTOR('',#478,10.);
#131=VECTOR('',#479,10.);
#132=VECTOR('',#482,10.);
#133=VECTOR('',#483,10.);
#134=VECTOR('',#484,10.);
#135=VECTOR('',#487,10.);
#136=VECTOR('',#488,10.);
#137=CIRCLE('',#352,6.6);
#138=CIRCLE('',#353,6.6);
#139=CIRCLE('',#355,3.);
#140=CIRCLE('',#357,3.75);
#141=CIRCLE('',#358,3.75);
#142=CIRCLE('',#361,3.75);
#143=CIRCLE('',#362,3.75);
#144=CIRCLE('',#365,3.75);
#145=CIRCLE('',#366,3.75);
#146=CIRCLE('',#369,3.75);
#147=CIRCLE('',#370,3.75);
#148=CIRCLE('',#373,3.);
#149=CIRCLE('',#376,12.2);
#150=CIRCLE('',#377,12.2);
#151=CIRCLE('',#379,12.2);
#152=CIRCLE('',#380,12.2);
#153=VERTEX_POINT('',#495);
#154=VERTEX_POINT('',#497);
#155=VERTEX_POINT('',#501);
#156=VERTEX_POINT('',#504);
#157=VERTEX_POINT('',#506);
#158=VERTEX_POINT('',#511);
#159=VERTEX_POINT('',#513);
#160=VERTEX_POINT('',#518);
#161=VERTEX_POINT('',#520);
#162=VERTEX_POINT('',#525);
#163=VERTEX_POINT('',#527);
#164=VERTEX_POINT('',#532);
#165=VERTEX_POINT('',#537);
#166=VERTEX_POINT('',#538);
#167=VERTEX_POINT('',#540);
#168=VERTEX_POINT('',#542);
#169=VERTEX_POINT('',#546);
#170=VERTEX_POINT('',#547);
#171=VERTEX_POINT('',#549);
#172=VERTEX_POINT('',#551);
#173=VERTEX_POINT('',#558);
#174=VERTEX_POINT('',#560);
#175=VERTEX_POINT('',#564);
#176=VERTEX_POINT('',#566);
#177=VERTEX_POINT('',#570);
#178=VERTEX_POINT('',#572);
#179=VERTEX_POINT('',#576);
#180=VERTEX_POINT('',#578);
#181=EDGE_CURVE('',#153,#153,#137,.T.);
#182=EDGE_CURVE('',#153,#154,#85,.T.);
#183=EDGE_CURVE('',#154,#154,#138,.T.);
#184=EDGE_CURVE('',#155,#155,#139,.T.);
#185=EDGE_CURVE('',#156,#156,#140,.T.);
#186=EDGE_CURVE('',#156,#157,#86,.T.);
#187=EDGE_CURVE('',#157,#157,#141,.T.);
#188=EDGE_CURVE('',#158,#158,#142,.T.);
#189=EDGE_CURVE('',#158,#159,#87,.T.);
#190=EDGE_CURVE('',#159,#159,#143,.T.);
#191=EDGE_CURVE('',#160,#160,#144,.T.);
#192=EDGE_CURVE('',#160,#161,#88,.T.);
#193=EDGE_CURVE('',#161,#161,#145,.T.);
#194=EDGE_CURVE('',#162,#162,#146,.T.);
#195=EDGE_CURVE('',#162,#163,#89,.T.);
#196=EDGE_CURVE('',#163,#163,#147,.T.);
#197=EDGE_CURVE('',#164,#164,#148,.T.);
#198=EDGE_CURVE('',#164,#155,#90,.T.);
#199=EDGE_CURVE('',#165,#166,#149,.T.);
#200=EDGE_CURVE('',#165,#167,#91,.T.);
#201=EDGE_CURVE('',#168,#167,#150,.T.);
#202=EDGE_CURVE('',#166,#168,#92,.T.);
#203=EDGE_CURVE('',#169,#170,#151,.T.);
#204=EDGE_CURVE('',#169,#171,#93,.T.);
#205=EDGE_CURVE('',#172,#171,#152,.T.);
#206=EDGE_CURVE('',#170,#172,#94,.T.);
#207=EDGE_CURVE('',#171,#168,#95,.T.);
#208=EDGE_CURVE('',#167,#172,#96,.T.);
#209=EDGE_CURVE('',#173,#166,#97,.T.);
#210=EDGE_CURVE('',#174,#173,#98,.T.);
#211=EDGE_CURVE('',#165,#174,#99,.T.);
#212=EDGE_CURVE('',#175,#170,#100,.T.);
#213=EDGE_CURVE('',#175,#176,#101,.T.);
#214=EDGE_CURVE('',#169,#176,#102,.T.);
#215=EDGE_CURVE('',#174,#177,#103,.T.);
#216=EDGE_CURVE('',#178,#173,#104,.T.);
#217=EDGE_CURVE('',#177,#178,#105,.T.);
#218=EDGE_CURVE('',#177,#179,#106,.T.);
#219=EDGE_CURVE('',#180,#178,#107,.T.);
#220=EDGE_CURVE('',#179,#180,#108,.T.);
#221=EDGE_CURVE('',#179,#175,#109,.T.);
#222=EDGE_CURVE('',#176,#180,#110,.T.);
#223=ORIENTED_EDGE('',*,*,#181,.F.);
#224=ORIENTED_EDGE('',*,*,#182,.T.);
#225=ORIENTED_EDGE('',*,*,#183,.F.);
#226=ORIENTED_EDGE('',*,*,#182,.F.);
#227=ORIENTED_EDGE('',*,*,#181,.T.);
#228=ORIENTED_EDGE('',*,*,#184,.F.);
#229=ORIENTED_EDGE('',*,*,#185,.F.);
#230=ORIENTED_EDGE('',*,*,#186,.T.);
#231=ORIENTED_EDGE('',*,*,#187,.F.);
#232=ORIENTED_EDGE('',*,*,#186,.F.);
#233=ORIENTED_EDGE('',*,*,#185,.T.);
#234=ORIENTED_EDGE('',*,*,#188,.F.);
#235=ORIENTED_EDGE('',*,*,#189,.T.);
#236=ORIENTED_EDGE('',*,*,#190,.F.);
#237=ORIENTED_EDGE('',*,*,#189,.F.);
#238=ORIENTED_EDGE('',*,*,#188,.T.);
#239=ORIENTED_EDGE('',*,*,#191,.F.);
#240=ORIENTED_EDGE('',*,*,#192,.T.);
#241=ORIENTED_EDGE('',*,*,#193,.F.);
#242=ORIENTED_EDGE('',*,*,#192,.F.);
#243=ORIENTED_EDGE('',*,*,#191,.T.);
#244=ORIENTED_EDGE('',*,*,#194,.F.);
#245=ORIENTED_EDGE('',*,*,#195,.T.);
#246=ORIENTED_EDGE('',*,*,#196,.F.);
#247=ORIENTED_EDGE('',*,*,#195,.F.);
#248=ORIENTED_EDGE('',*,*,#194,.T.);
#249=ORIENTED_EDGE('',*,*,#197,.F.);
#250=ORIENTED_EDGE('',*,*,#198,.T.);
#251=ORIENTED_EDGE('',*,*,#184,.T.);
#252=ORIENTED_EDGE('',*,*,#198,.F.);
#253=ORIENTED_EDGE('',*,*,#197,.T.);
#254=ORIENTED_EDGE('',*,*,#199,.F.);
#255=ORIENTED_EDGE('',*,*,#200,.T.);
#256=ORIENTED_EDGE('',*,*,#201,.F.);
#257=ORIENTED_EDGE('',*,*,#202,.F.);
#258=ORIENTED_EDGE('',*,*,#203,.F.);
#259=ORIENTED_EDGE('',*,*,#204,.T.);
#260=ORIENTED_EDGE('',*,*,#205,.F.);
#261=ORIENTED_EDGE('',*,*,#206,.F.);
#262=ORIENTED_EDGE('',*,*,#205,.T.);
#263=ORIENTED_EDGE('',*,*,#207,.T.);
#264=ORIENTED_EDGE('',*,*,#201,.T.);
#265=ORIENTED_EDGE('',*,*,#208,.T.);
#266=ORIENTED_EDGE('',*,*,#199,.T.);
#267=ORIENTED_EDGE('',*,*,#209,.F.);
#268=ORIENTED_EDGE('',*,*,#210,.F.);
#269=ORIENTED_EDGE('',*,*,#211,.F.);
#270=ORIENTED_EDGE('',*,*,#203,.T.);
#271=ORIENTED_EDGE('',*,*,#212,.F.);
#272=ORIENTED_EDGE('',*,*,#213,.T.);
#273=ORIENTED_EDGE('',*,*,#214,.F.);
#274=ORIENTED_EDGE('',*,*,#215,.F.);
#275=ORIENTED_EDGE('',*,*,#210,.T.);
#276=ORIENTED_EDGE('',*,*,#216,.F.);
#277=ORIENTED_EDGE('',*,*,#217,.F.);
#278=ORIENTED_EDGE('',*,*,#218,.F.);
#279=ORIENTED_EDGE('',*,*,#217,.T.);
#280=ORIENTED_EDGE('',*,*,#219,.F.);
#281=ORIENTED_EDGE('',*,*,#220,.F.);
#282=ORIENTED_EDGE('',*,*,#221,.F.);
#283=ORIENTED_EDGE('',*,*,#220,.T.);
#284=ORIENTED_EDGE('',*,*,#222,.F.);
#285=ORIENTED_EDGE('',*,*,#213,.F.);
#286=ORIENTED_EDGE('',*,*,#209,.T.);
#287=ORIENTED_EDGE('',*,*,#202,.T.);
#288=ORIENTED_EDGE('',*,*,#207,.F.);
#289=ORIENTED_EDGE('',*,*,#204,.F.);
#290=ORIENTED_EDGE('',*,*,#214,.T.);
#291=ORIENTED_EDGE('',*,*,#222,.T.);
#292=ORIENTED_EDGE('',*,*,#219,.T.);
#293=ORIENTED_EDGE('',*,*,#216,.T.);
#294=ORIENTED_EDGE('',*,*,#212,.T.);
#295=ORIENTED_EDGE('',*,*,#206,.T.);
#296=ORIENTED_EDGE('',*,*,#208,.F.);
#297=ORIENTED_EDGE('',*,*,#200,.F.);
#298=ORIENTED_EDGE('',*,*,#211,.T.);
#299=ORIENTED_EDGE('',*,*,#215,.T.);
#300=ORIENTED_EDGE('',*,*,#218,.T.);
#301=ORIENTED_EDGE('',*,*,#221,.T.);
#302=ORIENTED_EDGE('',*,*,#183,.T.);
#303=ORIENTED_EDGE('',*,*,#187,.T.);
#304=ORIENTED_EDGE('',*,*,#190,.T.);
#305=ORIENTED_EDGE('',*,*,#193,.T.);
#306=ORIENTED_EDGE('',*,*,#196,.T.);
#307=CYLINDRICAL_SURFACE('',#351,6.6);
#308=CYLINDRICAL_SURFACE('',#356,3.75);
#309=CYLINDRICAL_SURFACE('',#360,3.75);
#310=CYLINDRICAL_SURFACE('',#364,3.75);
#311=CYLINDRICAL_SURFACE('',#368,3.75);
#312=CYLINDRICAL_SURFACE('',#372,3.);
#313=CYLINDRICAL_SURFACE('',#375,12.2);
#314=CYLINDRICAL_SURFACE('',#378,12.2);
#315=ADVANCED_FACE('',(#35),#307,.T.);
#316=ADVANCED_FACE('',(#36,#15),#21,.T.);
#317=ADVANCED_FACE('',(#37),#308,.T.);
#318=ADVANCED_FACE('',(#38),#22,.T.);
#319=ADVANCED_FACE('',(#39),#309,.T.);
#320=ADVANCED_FACE('',(#40),#23,.T.);
#321=ADVANCED_FACE('',(#41),#310,.T.);
#322=ADVANCED_FACE('',(#42),#24,.T.);
#323=ADVANCED_FACE('',(#43),#311,.T.);
#324=ADVANCED_FACE('',(#44),#25,.T.);
#325=ADVANCED_FACE('',(#45),#312,.T.);
#326=ADVANCED_FACE('',(#46),#26,.T.);
#327=ADVANCED_FACE('',(#47),#313,.T.);
#328=ADVANCED_FACE('',(#48),#314,.T.);
#329=ADVANCED_FACE('',(#49),#27,.T.);
#330=ADVANCED_FACE('',(#50),#28,.T.);
#331=ADVANCED_FACE('',(#51),#29,.T.);
#332=ADVANCED_FACE('',(#52),#30,.T.);
#333=ADVANCED_FACE('',(#53),#31,.T.);
#334=ADVANCED_FACE('',(#54),#32,.T.);
#335=ADVANCED_FACE('',(#55),#33,.T.);
#336=ADVANCED_FACE('',(#56,#16,#17,#18,#19,#20),#34,.F.);
#337=CLOSED_SHELL('',(#315,#316,#317,#318,#319,#320,#321,#322,#323,#324,
#325,#326,#327,#328,#329,#330,#331,#332,#333,#334,#335,#336));
#338=DERIVED_UNIT_ELEMENT(#340,1.);
#339=DERIVED_UNIT_ELEMENT(#591,-3.);
#340=(
MASS_UNIT()
NAMED_UNIT(*)
SI_UNIT(.KILO.,.GRAM.)
);
#341=DERIVED_UNIT((#338,#339));
#342=MEASURE_REPRESENTATION_ITEM('density measure',
POSITIVE_RATIO_MEASURE(7850.),#341);
#343=PROPERTY_DEFINITION_REPRESENTATION(#348,#345);
#344=PROPERTY_DEFINITION_REPRESENTATION(#349,#346);
#345=REPRESENTATION('material name',(#347),#588);
#346=REPRESENTATION('density',(#342),#588);
#347=DESCRIPTIVE_REPRESENTATION_ITEM('\X2\94A2\X0\','\X2\94A2\X0\');
#348=PROPERTY_DEFINITION('material property','material name',#598);
#349=PROPERTY_DEFINITION('material property','density of part',#598);
#350=AXIS2_PLACEMENT_3D('',#493,#389,#390);
#351=AXIS2_PLACEMENT_3D('',#494,#391,#392);
#352=AXIS2_PLACEMENT_3D('',#496,#393,#394);
#353=AXIS2_PLACEMENT_3D('',#499,#396,#397);
#354=AXIS2_PLACEMENT_3D('',#500,#398,#399);
#355=AXIS2_PLACEMENT_3D('',#502,#400,#401);
#356=AXIS2_PLACEMENT_3D('',#503,#402,#403);
#357=AXIS2_PLACEMENT_3D('',#505,#404,#405);
#358=AXIS2_PLACEMENT_3D('',#508,#407,#408);
#359=AXIS2_PLACEMENT_3D('',#509,#409,#410);
#360=AXIS2_PLACEMENT_3D('',#510,#411,#412);
#361=AXIS2_PLACEMENT_3D('',#512,#413,#414);
#362=AXIS2_PLACEMENT_3D('',#515,#416,#417);
#363=AXIS2_PLACEMENT_3D('',#516,#418,#419);
#364=AXIS2_PLACEMENT_3D('',#517,#420,#421);
#365=AXIS2_PLACEMENT_3D('',#519,#422,#423);
#366=AXIS2_PLACEMENT_3D('',#522,#425,#426);
#367=AXIS2_PLACEMENT_3D('',#523,#427,#428);
#368=AXIS2_PLACEMENT_3D('',#524,#429,#430);
#369=AXIS2_PLACEMENT_3D('',#526,#431,#432);
#370=AXIS2_PLACEMENT_3D('',#529,#434,#435);
#371=AXIS2_PLACEMENT_3D('',#530,#436,#437);
#372=AXIS2_PLACEMENT_3D('',#531,#438,#439);
#373=AXIS2_PLACEMENT_3D('',#533,#440,#441);
#374=AXIS2_PLACEMENT_3D('',#535,#443,#444);
#375=AXIS2_PLACEMENT_3D('',#536,#445,#446);
#376=AXIS2_PLACEMENT_3D('',#539,#447,#448);
#377=AXIS2_PLACEMENT_3D('',#543,#450,#451);
#378=AXIS2_PLACEMENT_3D('',#545,#453,#454);
#379=AXIS2_PLACEMENT_3D('',#548,#455,#456);
#380=AXIS2_PLACEMENT_3D('',#552,#458,#459);
#381=AXIS2_PLACEMENT_3D('',#554,#461,#462);
#382=AXIS2_PLACEMENT_3D('',#557,#465,#466);
#383=AXIS2_PLACEMENT_3D('',#563,#470,#471);
#384=AXIS2_PLACEMENT_3D('',#569,#475,#476);
#385=AXIS2_PLACEMENT_3D('',#575,#480,#481);
#386=AXIS2_PLACEMENT_3D('',#581,#485,#486);
#387=AXIS2_PLACEMENT_3D('',#584,#489,#490);
#388=AXIS2_PLACEMENT_3D('',#585,#491,#492);
#389=DIRECTION('axis',(0.,0.,1.));
#390=DIRECTION('refdir',(1.,0.,0.));
#391=DIRECTION('center_axis',(0.,0.,-1.));
#392=DIRECTION('ref_axis',(1.,0.,0.));
#393=DIRECTION('center_axis',(0.,0.,-1.));
#394=DIRECTION('ref_axis',(1.,0.,0.));
#395=DIRECTION('',(0.,0.,1.));
#396=DIRECTION('center_axis',(0.,0.,1.));
#397=DIRECTION('ref_axis',(1.,0.,0.));
#398=DIRECTION('center_axis',(0.,0.,-1.));
#399=DIRECTION('ref_axis',(1.,0.,0.));
#400=DIRECTION('center_axis',(0.,0.,-1.));
#401=DIRECTION('ref_axis',(1.,0.,0.));
#402=DIRECTION('center_axis',(0.,0.,-1.));
#403=DIRECTION('ref_axis',(1.,0.,0.));
#404=DIRECTION('center_axis',(0.,0.,-1.));
#405=DIRECTION('ref_axis',(1.,0.,0.));
#406=DIRECTION('',(0.,0.,1.));
#407=DIRECTION('center_axis',(0.,0.,1.));
#408=DIRECTION('ref_axis',(1.,0.,0.));
#409=DIRECTION('center_axis',(0.,0.,-1.));
#410=DIRECTION('ref_axis',(1.,0.,0.));
#411=DIRECTION('center_axis',(0.,0.,-1.));
#412=DIRECTION('ref_axis',(1.,0.,0.));
#413=DIRECTION('center_axis',(0.,0.,-1.));
#414=DIRECTION('ref_axis',(1.,0.,0.));
#415=DIRECTION('',(0.,0.,1.));
#416=DIRECTION('center_axis',(0.,0.,1.));
#417=DIRECTION('ref_axis',(1.,0.,0.));
#418=DIRECTION('center_axis',(0.,0.,-1.));
#419=DIRECTION('ref_axis',(1.,0.,0.));
#420=DIRECTION('center_axis',(0.,0.,-1.));
#421=DIRECTION('ref_axis',(1.,0.,0.));
#422=DIRECTION('center_axis',(0.,0.,-1.));
#423=DIRECTION('ref_axis',(1.,0.,0.));
#424=DIRECTION('',(0.,0.,1.));
#425=DIRECTION('center_axis',(0.,0.,1.));
#426=DIRECTION('ref_axis',(1.,0.,0.));
#427=DIRECTION('center_axis',(0.,0.,-1.));
#428=DIRECTION('ref_axis',(1.,0.,0.));
#429=DIRECTION('center_axis',(0.,0.,-1.));
#430=DIRECTION('ref_axis',(1.,0.,0.));
#431=DIRECTION('center_axis',(0.,0.,-1.));
#432=DIRECTION('ref_axis',(1.,0.,0.));
#433=DIRECTION('',(0.,0.,1.));
#434=DIRECTION('center_axis',(0.,0.,1.));
#435=DIRECTION('ref_axis',(1.,0.,0.));
#436=DIRECTION('center_axis',(0.,0.,-1.));
#437=DIRECTION('ref_axis',(1.,0.,0.));
#438=DIRECTION('center_axis',(0.,0.,-1.));
#439=DIRECTION('ref_axis',(1.,0.,0.));
#440=DIRECTION('center_axis',(0.,0.,-1.));
#441=DIRECTION('ref_axis',(1.,0.,0.));
#442=DIRECTION('',(0.,0.,1.));
#443=DIRECTION('center_axis',(0.,0.,-1.));
#444=DIRECTION('ref_axis',(1.,0.,0.));
#445=DIRECTION('center_axis',(0.,-1.,0.));
#446=DIRECTION('ref_axis',(-1.,0.,-3.87433820873583E-15));
#447=DIRECTION('center_axis',(0.,1.,0.));
#448=DIRECTION('ref_axis',(1.,0.,0.));
#449=DIRECTION('',(0.,-1.,0.));
#450=DIRECTION('center_axis',(0.,-1.,0.));
#451=DIRECTION('ref_axis',(1.,0.,0.));
#452=DIRECTION('',(0.,-1.,0.));
#453=DIRECTION('center_axis',(0.,-1.,0.));
#454=DIRECTION('ref_axis',(1.,0.,0.));
#455=DIRECTION('center_axis',(0.,1.,0.));
#456=DIRECTION('ref_axis',(1.,0.,0.));
#457=DIRECTION('',(0.,-1.,0.));
#458=DIRECTION('center_axis',(0.,-1.,0.));
#459=DIRECTION('ref_axis',(1.,0.,0.));
#460=DIRECTION('',(0.,-1.,0.));
#461=DIRECTION('center_axis',(0.,-1.,0.));
#462=DIRECTION('ref_axis',(1.,0.,0.));
#463=DIRECTION('',(-1.,0.,0.));
#464=DIRECTION('',(1.,0.,0.));
#465=DIRECTION('center_axis',(0.,-1.,0.));
#466=DIRECTION('ref_axis',(1.,0.,0.));
#467=DIRECTION('',(1.,0.,0.));
#468=DIRECTION('',(0.,0.,1.));
#469=DIRECTION('',(-1.,0.,0.));
#470=DIRECTION('center_axis',(0.,-1.,0.));
#471=DIRECTION('ref_axis',(1.,0.,0.));
#472=DIRECTION('',(-1.,0.,0.));
#473=DIRECTION('',(0.,0.,1.));
#474=DIRECTION('',(1.,0.,0.));
#475=DIRECTION('center_axis',(-1.,0.,0.));
#476=DIRECTION('ref_axis',(0.,-1.,0.));
#477=DIRECTION('',(0.,1.,0.));
#478=DIRECTION('',(0.,-1.,0.));
#479=DIRECTION('',(0.,0.,1.));
#480=DIRECTION('center_axis',(0.,1.,0.));
#481=DIRECTION('ref_axis',(-1.,0.,0.));
#482=DIRECTION('',(1.,0.,0.));
#483=DIRECTION('',(-1.,0.,0.));
#484=DIRECTION('',(0.,0.,1.));
#485=DIRECTION('center_axis',(1.,0.,0.));
#486=DIRECTION('ref_axis',(0.,1.,0.));
#487=DIRECTION('',(0.,-1.,0.));
#488=DIRECTION('',(0.,1.,0.));
#489=DIRECTION('center_axis',(0.,0.,1.));
#490=DIRECTION('ref_axis',(1.,0.,0.));
#491=DIRECTION('center_axis',(0.,0.,1.));
#492=DIRECTION('ref_axis',(1.,0.,0.));
#493=CARTESIAN_POINT('',(0.,0.,0.));
#494=CARTESIAN_POINT('Origin',(-13.8337579078603,23.1388429691394,0.));
#495=CARTESIAN_POINT('',(-20.4337579078603,23.1388429691394,-2.));
#496=CARTESIAN_POINT('Origin',(-13.8337579078603,23.1388429691394,-2.));
#497=CARTESIAN_POINT('',(-20.4337579078603,23.1388429691394,0.));
#498=CARTESIAN_POINT('',(-20.4337579078603,23.1388429691394,0.));
#499=CARTESIAN_POINT('Origin',(-13.8337579078603,23.1388429691394,0.));
#500=CARTESIAN_POINT('Origin',(-13.8337579078603,23.1388429691394,-2.));
#501=CARTESIAN_POINT('',(-16.8337579078603,23.1388429691394,-2.));
#502=CARTESIAN_POINT('Origin',(-13.8337579078603,23.1388429691394,-2.));
#503=CARTESIAN_POINT('Origin',(-23.,33.,0.));
#504=CARTESIAN_POINT('',(-26.75,33.,-1.));
#505=CARTESIAN_POINT('Origin',(-23.,33.,-1.));
#506=CARTESIAN_POINT('',(-26.75,33.,0.));
#507=CARTESIAN_POINT('',(-26.75,33.,0.));
#508=CARTESIAN_POINT('Origin',(-23.,33.,0.));
#509=CARTESIAN_POINT('Origin',(-23.,33.,-1.));
#510=CARTESIAN_POINT('Origin',(-5.,33.,0.));
#511=CARTESIAN_POINT('',(-8.75,33.,-1.));
#512=CARTESIAN_POINT('Origin',(-5.,33.,-1.));
#513=CARTESIAN_POINT('',(-8.75,33.,0.));
#514=CARTESIAN_POINT('',(-8.75,33.,0.));
#515=CARTESIAN_POINT('Origin',(-5.,33.,0.));
#516=CARTESIAN_POINT('Origin',(-5.,33.,-1.));
#517=CARTESIAN_POINT('Origin',(-23.,2.77555756156289E-16,0.));
#518=CARTESIAN_POINT('',(-26.75,7.36798305836547E-16,-1.));
#519=CARTESIAN_POINT('Origin',(-23.,2.77555756156289E-16,-1.));
#520=CARTESIAN_POINT('',(-26.75,7.36798305836547E-16,0.));
#521=CARTESIAN_POINT('',(-26.75,7.36798305836547E-16,0.));
#522=CARTESIAN_POINT('Origin',(-23.,2.77555756156289E-16,0.));
#523=CARTESIAN_POINT('Origin',(-23.,0.,-1.));
#524=CARTESIAN_POINT('Origin',(-5.,2.77555756156289E-16,0.));
#525=CARTESIAN_POINT('',(-8.75,7.36798305836547E-16,-1.));
#526=CARTESIAN_POINT('Origin',(-5.,2.77555756156289E-16,-1.));
#527=CARTESIAN_POINT('',(-8.75,7.36798305836547E-16,0.));
#528=CARTESIAN_POINT('',(-8.75,7.36798305836547E-16,0.));
#529=CARTESIAN_POINT('Origin',(-5.,2.77555756156289E-16,0.));
#530=CARTESIAN_POINT('Origin',(-5.,0.,-1.));
#531=CARTESIAN_POINT('Origin',(-13.8337579078603,23.1388429691394,0.));
#532=CARTESIAN_POINT('',(-16.8337579078603,23.1388429691394,-12.));
#533=CARTESIAN_POINT('Origin',(-13.8337579078603,23.1388429691394,-12.));
#534=CARTESIAN_POINT('',(-16.8337579078603,23.1388429691394,0.));
#535=CARTESIAN_POINT('Origin',(-13.8337579078603,23.1388429691394,-12.));
#536=CARTESIAN_POINT('Origin',(-11.7017042679904,-6.00000000000001,11.25));
#537=CARTESIAN_POINT('',(-16.4216089280445,-6.00000000000001,0.));
#538=CARTESIAN_POINT('',(-16.4216089280445,-6.00000000000001,22.5));
#539=CARTESIAN_POINT('Origin',(-11.7017042679904,-6.00000000000001,11.25));
#540=CARTESIAN_POINT('',(-16.4216089280445,-37.,0.));
#541=CARTESIAN_POINT('',(-16.4216089280445,-6.00000000000001,0.));
#542=CARTESIAN_POINT('',(-16.4216089280445,-37.,22.5));
#543=CARTESIAN_POINT('Origin',(-11.7017042679904,-37.,11.25));
#544=CARTESIAN_POINT('',(-16.4216089280445,-6.00000000000001,22.5));
#545=CARTESIAN_POINT('Origin',(-11.7017042679904,-6.00000000000001,11.25));
#546=CARTESIAN_POINT('',(-6.98179960793635,-6.00000000000001,22.5));
#547=CARTESIAN_POINT('',(-6.98179960793642,-6.00000000000001,4.44089209850063E-15));
#548=CARTESIAN_POINT('Origin',(-11.7017042679904,-6.00000000000001,11.25));
#549=CARTESIAN_POINT('',(-6.98179960793635,-37.,22.5));
#550=CARTESIAN_POINT('',(-6.98179960793635,-6.00000000000001,22.5));
#551=CARTESIAN_POINT('',(-6.98179960793642,-37.,4.44089209850063E-15));
#552=CARTESIAN_POINT('Origin',(-11.7017042679904,-37.,11.25));
#553=CARTESIAN_POINT('',(-6.98179960793642,-6.00000000000001,4.44089209850063E-15));
#554=CARTESIAN_POINT('Origin',(-11.7017042679904,-37.,11.25));
#555=CARTESIAN_POINT('',(2.,-37.,22.5));
#556=CARTESIAN_POINT('',(-30.,-37.,0.));
#557=CARTESIAN_POINT('Origin',(-30.,-6.00000000000001,0.));
#558=CARTESIAN_POINT('',(-30.,-6.00000000000001,22.5));
#559=CARTESIAN_POINT('',(2.,-6.00000000000001,22.5));
#560=CARTESIAN_POINT('',(-30.,-6.00000000000001,0.));
#561=CARTESIAN_POINT('',(-30.,-6.00000000000001,0.));
#562=CARTESIAN_POINT('',(2.,-6.00000000000001,0.));
#563=CARTESIAN_POINT('Origin',(-30.,-6.00000000000001,0.));
#564=CARTESIAN_POINT('',(2.,-6.00000000000001,0.));
#565=CARTESIAN_POINT('',(2.,-6.00000000000001,0.));
#566=CARTESIAN_POINT('',(2.,-6.00000000000001,22.5));
#567=CARTESIAN_POINT('',(2.,-6.00000000000001,0.));
#568=CARTESIAN_POINT('',(2.,-6.00000000000001,22.5));
#569=CARTESIAN_POINT('Origin',(-30.,40.,0.));
#570=CARTESIAN_POINT('',(-30.,40.,0.));
#571=CARTESIAN_POINT('',(-30.,-6.00000000000001,0.));
#572=CARTESIAN_POINT('',(-30.,40.,22.5));
#573=CARTESIAN_POINT('',(-30.,-6.00000000000001,22.5));
#574=CARTESIAN_POINT('',(-30.,40.,0.));
#575=CARTESIAN_POINT('Origin',(2.,40.,0.));
#576=CARTESIAN_POINT('',(2.,40.,0.));
#577=CARTESIAN_POINT('',(-30.,40.,0.));
#578=CARTESIAN_POINT('',(2.,40.,22.5));
#579=CARTESIAN_POINT('',(-30.,40.,22.5));
#580=CARTESIAN_POINT('',(2.,40.,0.));
#581=CARTESIAN_POINT('Origin',(2.,-6.00000000000001,0.));
#582=CARTESIAN_POINT('',(2.,40.,0.));
#583=CARTESIAN_POINT('',(2.,40.,22.5));
#584=CARTESIAN_POINT('Origin',(-14.,17.,22.5));
#585=CARTESIAN_POINT('Origin',(-14.,17.,0.));
#586=UNCERTAINTY_MEASURE_WITH_UNIT(LENGTH_MEASURE(0.01),#590,
'DISTANCE_ACCURACY_VALUE',
'Maximum model space distance between geometric entities at asserted c
onnectivities');
#587=UNCERTAINTY_MEASURE_WITH_UNIT(LENGTH_MEASURE(0.01),#590,
'DISTANCE_ACCURACY_VALUE',
'Maximum model space distance between geometric entities at asserted c
onnectivities');
#588=(
GEOMETRIC_REPRESENTATION_CONTEXT(3)
GLOBAL_UNCERTAINTY_ASSIGNED_CONTEXT((#586))
GLOBAL_UNIT_ASSIGNED_CONTEXT((#590,#592,#593))
REPRESENTATION_CONTEXT('','3D')
);
#589=(
GEOMETRIC_REPRESENTATION_CONTEXT(3)
GLOBAL_UNCERTAINTY_ASSIGNED_CONTEXT((#587))
GLOBAL_UNIT_ASSIGNED_CONTEXT((#590,#592,#593))
REPRESENTATION_CONTEXT('','3D')
);
#590=(
LENGTH_UNIT()
NAMED_UNIT(*)
SI_UNIT(.MILLI.,.METRE.)
);
#591=(
LENGTH_UNIT()
NAMED_UNIT(*)
SI_UNIT($,.METRE.)
);
#592=(
NAMED_UNIT(*)
PLANE_ANGLE_UNIT()
SI_UNIT($,.RADIAN.)
);
#593=(
NAMED_UNIT(*)
SI_UNIT($,.STERADIAN.)
SOLID_ANGLE_UNIT()
);
#594=SHAPE_DEFINITION_REPRESENTATION(#595,#596);
#595=PRODUCT_DEFINITION_SHAPE('',$,#598);
#596=SHAPE_REPRESENTATION('',(#350),#588);
#597=PRODUCT_DEFINITION_CONTEXT('part definition',#602,'design');
#598=PRODUCT_DEFINITION('2026-08-03-15-19-51-482','\X2\7535673A\X0\',#599,
#597);
#599=PRODUCT_DEFINITION_FORMATION('',$,#604);
#600=PRODUCT_RELATED_PRODUCT_CATEGORY('\X2\7535673A\X0\','\X2\7535673A\X0\',
(#604));
#601=APPLICATION_PROTOCOL_DEFINITION('international standard',
'automotive_design',2009,#602);
#602=APPLICATION_CONTEXT(
'Core Data for Automotive Mechanical Design Process');
#603=PRODUCT_CONTEXT('part definition',#602,'mechanical');
#604=PRODUCT('2026-08-03-15-19-51-482','\X2\7535673A\X0\',$,(#603));
#605=PRESENTATION_STYLE_ASSIGNMENT((#606));
#606=SURFACE_STYLE_USAGE(.BOTH.,#607);
#607=SURFACE_SIDE_STYLE('',(#608));
#608=SURFACE_STYLE_FILL_AREA(#609);
#609=FILL_AREA_STYLE('\X2\94A2\X0\ - \X2\7F0E5149\X0\',(#610));
#610=FILL_AREA_STYLE_COLOUR('\X2\94A2\X0\ - \X2\7F0E5149\X0\',#611);
#611=COLOUR_RGB('\X2\94A2\X0\ - \X2\7F0E5149\X0\',0.627450980392157,0.627450980392157,
0.627450980392157);
ENDSEC;
END-ISO-10303-21;
