ISO-10303-21;
HEADER;
/* Generated by software containing ST-Developer
 * from STEP Tools, Inc. (www.steptools.com) 
 */

FILE_DESCRIPTION(
/* description */ (''),
/* implementation_level */ '2;1');

FILE_NAME(
/* name */ '',
/* time_stamp */ '2026-08-04T10:55:55+08:00',
/* author */ (''),
/* organization */ (''),
/* preprocessor_version */ 'ST-DEVELOPER v20.1',
/* originating_system */ 'Autodesk Translation Framework v15.8.0.0',
/* authorisation */ '');

FILE_SCHEMA (('AUTOMOTIVE_DESIGN { 1 0 10303 214 3 1 1 }'));
ENDSEC;

DATA;
#10=MECHANICAL_DESIGN_GEOMETRIC_PRESENTATION_REPRESENTATION('',(#13,#14,
#15),#949);
#11=SHAPE_REPRESENTATION_RELATIONSHIP('SRR','None',#956,#12);
#12=ADVANCED_BREP_SHAPE_REPRESENTATION('',(#16,#17,#18),#948);
#13=STYLED_ITEM('',(#965),#16);
#14=STYLED_ITEM('',(#965),#17);
#15=STYLED_ITEM('',(#965),#18);
#16=MANIFOLD_SOLID_BREP('\X2\5B9E4F53\X0\1',#521);
#17=MANIFOLD_SOLID_BREP('\X2\5B9E4F53\X0\1',#522);
#18=MANIFOLD_SOLID_BREP('\X2\5B9E4F53\X0\5',#523);
#19=FACE_BOUND('',#93,.T.);
#20=FACE_BOUND('',#94,.T.);
#21=FACE_BOUND('',#113,.T.);
#22=FACE_BOUND('',#114,.T.);
#23=FACE_BOUND('',#115,.T.);
#24=FACE_BOUND('',#117,.T.);
#25=FACE_BOUND('',#118,.T.);
#26=FACE_BOUND('',#119,.T.);
#27=FACE_BOUND('',#121,.T.);
#28=B_SPLINE_CURVE_WITH_KNOTS('',3,(#766,#767,#768,#769,#770,#771,#772,
#773,#774,#775,#776,#777,#778,#779,#780,#781),.UNSPECIFIED.,.F.,.F.,(4,
2,2,2,2,2,2,4),(0.792623760330028,0.869514238066822,0.958151916041171,1.04678959401552,
1.13910595376015,1.23142231350479,1.31632836527668,1.40123441704858),
 .UNSPECIFIED.);
#29=B_SPLINE_CURVE_WITH_KNOTS('',3,(#782,#783,#784,#785,#786,#787,#788,
#789,#790,#791,#792,#793,#794,#795,#796,#797),.UNSPECIFIED.,.F.,.F.,(4,
2,2,2,2,2,2,4),(0.,0.0849060517718961,0.169812103543792,0.262128463288426,
0.35444482303306,0.443082501007409,0.531720178981758,0.608610656718552),
 .UNSPECIFIED.);
#30=B_SPLINE_CURVE_WITH_KNOTS('',3,(#819,#820,#821,#822,#823,#824,#825,
#826,#827,#828,#829,#830,#831,#832,#833,#834,#835,#836,#837,#838,#839,#840,
#841,#842,#843,#844,#845,#846,#847,#848,#849,#850,#851,#852),
 .UNSPECIFIED.,.T.,.F.,(4,2,2,2,2,2,2,2,2,2,2,2,2,2,2,2,4),(0.,0.0844212117332886,
0.168842423466577,0.257844555178532,0.346846686890486,0.439719942618265,
0.532593198346043,0.61750100812559,0.702408817905137,0.787316627684684,
0.872224437464232,0.96509769319201,1.05797094891979,1.14697308063174,1.2359752123437,
1.32039642407699,1.40481763581027),.UNSPECIFIED.);
#31=PLANE('',#540);
#32=PLANE('',#547);
#33=PLANE('',#550);
#34=PLANE('',#553);
#35=PLANE('',#562);
#36=PLANE('',#563);
#37=PLANE('',#567);
#38=PLANE('',#568);
#39=PLANE('',#569);
#40=PLANE('',#570);
#41=PLANE('',#571);
#42=PLANE('',#572);
#43=PLANE('',#573);
#44=PLANE('',#574);
#45=PLANE('',#575);
#46=PLANE('',#576);
#47=PLANE('',#577);
#48=PLANE('',#578);
#49=PLANE('',#579);
#50=PLANE('',#581);
#51=PLANE('',#587);
#52=PLANE('',#588);
#53=FACE_OUTER_BOUND('',#86,.T.);
#54=FACE_OUTER_BOUND('',#87,.T.);
#55=FACE_OUTER_BOUND('',#88,.T.);
#56=FACE_OUTER_BOUND('',#89,.T.);
#57=FACE_OUTER_BOUND('',#90,.T.);
#58=FACE_OUTER_BOUND('',#91,.T.);
#59=FACE_OUTER_BOUND('',#92,.T.);
#60=FACE_OUTER_BOUND('',#95,.T.);
#61=FACE_OUTER_BOUND('',#96,.T.);
#62=FACE_OUTER_BOUND('',#97,.T.);
#63=FACE_OUTER_BOUND('',#98,.T.);
#64=FACE_OUTER_BOUND('',#99,.T.);
#65=FACE_OUTER_BOUND('',#100,.T.);
#66=FACE_OUTER_BOUND('',#101,.T.);
#67=FACE_OUTER_BOUND('',#102,.T.);
#68=FACE_OUTER_BOUND('',#103,.T.);
#69=FACE_OUTER_BOUND('',#104,.T.);
#70=FACE_OUTER_BOUND('',#105,.T.);
#71=FACE_OUTER_BOUND('',#106,.T.);
#72=FACE_OUTER_BOUND('',#107,.T.);
#73=FACE_OUTER_BOUND('',#108,.T.);
#74=FACE_OUTER_BOUND('',#109,.T.);
#75=FACE_OUTER_BOUND('',#110,.T.);
#76=FACE_OUTER_BOUND('',#111,.T.);
#77=FACE_OUTER_BOUND('',#112,.T.);
#78=FACE_OUTER_BOUND('',#116,.T.);
#79=FACE_OUTER_BOUND('',#120,.T.);
#80=FACE_OUTER_BOUND('',#122,.T.);
#81=FACE_OUTER_BOUND('',#123,.T.);
#82=FACE_OUTER_BOUND('',#124,.T.);
#83=FACE_OUTER_BOUND('',#125,.T.);
#84=FACE_OUTER_BOUND('',#126,.T.);
#85=FACE_OUTER_BOUND('',#127,.T.);
#86=EDGE_LOOP('',(#345,#346,#347,#348));
#87=EDGE_LOOP('',(#349));
#88=EDGE_LOOP('',(#350,#351,#352,#353));
#89=EDGE_LOOP('',(#354,#355,#356,#357));
#90=EDGE_LOOP('',(#358,#359));
#91=EDGE_LOOP('',(#360,#361,#362));
#92=EDGE_LOOP('',(#363,#364,#365,#366));
#93=EDGE_LOOP('',(#367));
#94=EDGE_LOOP('',(#368));
#95=EDGE_LOOP('',(#369,#370,#371,#372));
#96=EDGE_LOOP('',(#373));
#97=EDGE_LOOP('',(#374,#375,#376,#377,#378,#379,#380,#381));
#98=EDGE_LOOP('',(#382,#383,#384,#385,#386,#387));
#99=EDGE_LOOP('',(#388,#389,#390,#391));
#100=EDGE_LOOP('',(#392,#393,#394,#395));
#101=EDGE_LOOP('',(#396,#397,#398,#399));
#102=EDGE_LOOP('',(#400,#401,#402,#403));
#103=EDGE_LOOP('',(#404));
#104=EDGE_LOOP('',(#405,#406,#407,#408));
#105=EDGE_LOOP('',(#409,#410,#411,#412));
#106=EDGE_LOOP('',(#413,#414,#415,#416));
#107=EDGE_LOOP('',(#417,#418,#419,#420));
#108=EDGE_LOOP('',(#421,#422,#423,#424));
#109=EDGE_LOOP('',(#425,#426,#427,#428));
#110=EDGE_LOOP('',(#429,#430,#431,#432));
#111=EDGE_LOOP('',(#433,#434,#435,#436));
#112=EDGE_LOOP('',(#437,#438,#439,#440,#441,#442,#443,#444));
#113=EDGE_LOOP('',(#445));
#114=EDGE_LOOP('',(#446));
#115=EDGE_LOOP('',(#447,#448,#449,#450,#451));
#116=EDGE_LOOP('',(#452,#453,#454,#455,#456,#457,#458,#459));
#117=EDGE_LOOP('',(#460));
#118=EDGE_LOOP('',(#461));
#119=EDGE_LOOP('',(#462));
#120=EDGE_LOOP('',(#463));
#121=EDGE_LOOP('',(#464));
#122=EDGE_LOOP('',(#465));
#123=EDGE_LOOP('',(#466));
#124=EDGE_LOOP('',(#467,#468,#469,#470));
#125=EDGE_LOOP('',(#471,#472,#473,#474));
#126=EDGE_LOOP('',(#475));
#127=EDGE_LOOP('',(#476));
#128=LINE('',#744,#172);
#129=LINE('',#751,#173);
#130=LINE('',#757,#174);
#131=LINE('',#762,#175);
#132=LINE('',#801,#176);
#133=LINE('',#803,#177);
#134=LINE('',#805,#178);
#135=LINE('',#806,#179);
#136=LINE('',#813,#180);
#137=LINE('',#815,#181);
#138=LINE('',#816,#182);
#139=LINE('',#857,#183);
#140=LINE('',#861,#184);
#141=LINE('',#865,#185);
#142=LINE('',#867,#186);
#143=LINE('',#869,#187);
#144=LINE('',#870,#188);
#145=LINE('',#876,#189);
#146=LINE('',#882,#190);
#147=LINE('',#884,#191);
#148=LINE('',#886,#192);
#149=LINE('',#887,#193);
#150=LINE('',#890,#194);
#151=LINE('',#892,#195);
#152=LINE('',#893,#196);
#153=LINE('',#896,#197);
#154=LINE('',#898,#198);
#155=LINE('',#899,#199);
#156=LINE('',#902,#200);
#157=LINE('',#904,#201);
#158=LINE('',#905,#202);
#159=LINE('',#908,#203);
#160=LINE('',#910,#204);
#161=LINE('',#911,#205);
#162=LINE('',#914,#206);
#163=LINE('',#916,#207);
#164=LINE('',#917,#208);
#165=LINE('',#920,#209);
#166=LINE('',#922,#210);
#167=LINE('',#923,#211);
#168=LINE('',#925,#212);
#169=LINE('',#926,#213);
#170=LINE('',#937,#214);
#171=LINE('',#942,#215);
#172=VECTOR('',#595,2.5);
#173=VECTOR('',#604,1.6);
#174=VECTOR('',#611,1.6);
#175=VECTOR('',#616,10.);
#176=VECTOR('',#623,10.);
#177=VECTOR('',#624,10.);
#178=VECTOR('',#625,10.);
#179=VECTOR('',#626,10.);
#180=VECTOR('',#633,10.);
#181=VECTOR('',#634,10.);
#182=VECTOR('',#635,10.);
#183=VECTOR('',#642,16.5);
#184=VECTOR('',#645,10.);
#185=VECTOR('',#652,2.25);
#186=VECTOR('',#655,2.25);
#187=VECTOR('',#658,10.);
#188=VECTOR('',#659,10.);
#189=VECTOR('',#666,14.5);
#190=VECTOR('',#673,10.);
#191=VECTOR('',#674,10.);
#192=VECTOR('',#675,10.);
#193=VECTOR('',#676,10.);
#194=VECTOR('',#679,10.);
#195=VECTOR('',#680,10.);
#196=VECTOR('',#681,10.);
#197=VECTOR('',#684,10.);
#198=VECTOR('',#685,10.);
#199=VECTOR('',#686,10.);
#200=VECTOR('',#689,10.);
#201=VECTOR('',#690,10.);
#202=VECTOR('',#691,10.);
#203=VECTOR('',#694,10.);
#204=VECTOR('',#695,10.);
#205=VECTOR('',#696,10.);
#206=VECTOR('',#699,10.);
#207=VECTOR('',#700,10.);
#208=VECTOR('',#701,10.);
#209=VECTOR('',#704,10.);
#210=VECTOR('',#705,10.);
#211=VECTOR('',#706,10.);
#212=VECTOR('',#709,10.);
#213=VECTOR('',#710,10.);
#214=VECTOR('',#727,2.25);
#215=VECTOR('',#732,2.25);
#216=CIRCLE('',#538,2.5);
#217=CIRCLE('',#539,2.5);
#218=CIRCLE('',#542,1.6);
#219=CIRCLE('',#543,1.6);
#220=CIRCLE('',#545,1.6);
#221=CIRCLE('',#546,1.6);
#222=CIRCLE('',#548,2.25);
#223=CIRCLE('',#551,2.25);
#224=CIRCLE('',#552,2.25);
#225=CIRCLE('',#556,16.5);
#226=CIRCLE('',#557,16.5);
#227=CIRCLE('',#558,16.5);
#228=CIRCLE('',#559,16.5);
#229=CIRCLE('',#565,14.5);
#230=CIRCLE('',#566,14.5);
#231=CIRCLE('',#580,2.25);
#232=CIRCLE('',#582,2.25);
#233=CIRCLE('',#585,2.25);
#234=CIRCLE('',#586,2.25);
#235=VERTEX_POINT('',#741);
#236=VERTEX_POINT('',#743);
#237=VERTEX_POINT('',#748);
#238=VERTEX_POINT('',#750);
#239=VERTEX_POINT('',#754);
#240=VERTEX_POINT('',#756);
#241=VERTEX_POINT('',#760);
#242=VERTEX_POINT('',#761);
#243=VERTEX_POINT('',#765);
#244=VERTEX_POINT('',#799);
#245=VERTEX_POINT('',#800);
#246=VERTEX_POINT('',#802);
#247=VERTEX_POINT('',#804);
#248=VERTEX_POINT('',#807);
#249=VERTEX_POINT('',#809);
#250=VERTEX_POINT('',#812);
#251=VERTEX_POINT('',#814);
#252=VERTEX_POINT('',#818);
#253=VERTEX_POINT('',#854);
#254=VERTEX_POINT('',#856);
#255=VERTEX_POINT('',#858);
#256=VERTEX_POINT('',#860);
#257=VERTEX_POINT('',#873);
#258=VERTEX_POINT('',#875);
#259=VERTEX_POINT('',#880);
#260=VERTEX_POINT('',#881);
#261=VERTEX_POINT('',#883);
#262=VERTEX_POINT('',#885);
#263=VERTEX_POINT('',#889);
#264=VERTEX_POINT('',#891);
#265=VERTEX_POINT('',#895);
#266=VERTEX_POINT('',#897);
#267=VERTEX_POINT('',#901);
#268=VERTEX_POINT('',#903);
#269=VERTEX_POINT('',#907);
#270=VERTEX_POINT('',#909);
#271=VERTEX_POINT('',#913);
#272=VERTEX_POINT('',#915);
#273=VERTEX_POINT('',#919);
#274=VERTEX_POINT('',#921);
#275=VERTEX_POINT('',#931);
#276=VERTEX_POINT('',#934);
#277=VERTEX_POINT('',#939);
#278=VERTEX_POINT('',#941);
#279=EDGE_CURVE('',#235,#235,#216,.T.);
#280=EDGE_CURVE('',#235,#236,#128,.T.);
#281=EDGE_CURVE('',#236,#236,#217,.T.);
#282=EDGE_CURVE('',#237,#237,#218,.T.);
#283=EDGE_CURVE('',#237,#238,#129,.T.);
#284=EDGE_CURVE('',#238,#238,#219,.T.);
#285=EDGE_CURVE('',#239,#239,#220,.T.);
#286=EDGE_CURVE('',#239,#240,#130,.T.);
#287=EDGE_CURVE('',#240,#240,#221,.T.);
#288=EDGE_CURVE('',#241,#242,#131,.T.);
#289=EDGE_CURVE('',#242,#241,#222,.T.);
#290=EDGE_CURVE('',#242,#243,#28,.T.);
#291=EDGE_CURVE('',#243,#241,#29,.T.);
#292=EDGE_CURVE('',#244,#245,#132,.T.);
#293=EDGE_CURVE('',#246,#244,#133,.T.);
#294=EDGE_CURVE('',#247,#246,#134,.T.);
#295=EDGE_CURVE('',#245,#247,#135,.T.);
#296=EDGE_CURVE('',#248,#248,#223,.T.);
#297=EDGE_CURVE('',#249,#249,#224,.T.);
#298=EDGE_CURVE('',#250,#244,#136,.T.);
#299=EDGE_CURVE('',#251,#250,#137,.T.);
#300=EDGE_CURVE('',#251,#246,#138,.T.);
#301=EDGE_CURVE('',#252,#252,#30,.T.);
#302=EDGE_CURVE('',#253,#253,#225,.T.);
#303=EDGE_CURVE('',#253,#254,#139,.T.);
#304=EDGE_CURVE('',#254,#255,#226,.T.);
#305=EDGE_CURVE('',#255,#256,#140,.T.);
#306=EDGE_CURVE('',#256,#251,#227,.T.);
#307=EDGE_CURVE('',#250,#254,#228,.T.);
#308=EDGE_CURVE('',#249,#243,#141,.T.);
#309=EDGE_CURVE('',#248,#252,#142,.T.);
#310=EDGE_CURVE('',#256,#247,#143,.T.);
#311=EDGE_CURVE('',#245,#255,#144,.T.);
#312=EDGE_CURVE('',#257,#257,#229,.T.);
#313=EDGE_CURVE('',#257,#258,#145,.T.);
#314=EDGE_CURVE('',#258,#258,#230,.T.);
#315=EDGE_CURVE('',#259,#260,#146,.T.);
#316=EDGE_CURVE('',#259,#261,#147,.T.);
#317=EDGE_CURVE('',#262,#261,#148,.T.);
#318=EDGE_CURVE('',#260,#262,#149,.T.);
#319=EDGE_CURVE('',#260,#263,#150,.T.);
#320=EDGE_CURVE('',#264,#262,#151,.T.);
#321=EDGE_CURVE('',#263,#264,#152,.T.);
#322=EDGE_CURVE('',#265,#263,#153,.T.);
#323=EDGE_CURVE('',#266,#264,#154,.T.);
#324=EDGE_CURVE('',#265,#266,#155,.T.);
#325=EDGE_CURVE('',#267,#265,#156,.T.);
#326=EDGE_CURVE('',#268,#266,#157,.T.);
#327=EDGE_CURVE('',#267,#268,#158,.T.);
#328=EDGE_CURVE('',#269,#267,#159,.T.);
#329=EDGE_CURVE('',#270,#268,#160,.T.);
#330=EDGE_CURVE('',#269,#270,#161,.T.);
#331=EDGE_CURVE('',#271,#269,#162,.T.);
#332=EDGE_CURVE('',#272,#270,#163,.T.);
#333=EDGE_CURVE('',#271,#272,#164,.T.);
#334=EDGE_CURVE('',#273,#271,#165,.T.);
#335=EDGE_CURVE('',#274,#272,#166,.T.);
#336=EDGE_CURVE('',#273,#274,#167,.T.);
#337=EDGE_CURVE('',#273,#259,#168,.T.);
#338=EDGE_CURVE('',#261,#274,#169,.T.);
#339=EDGE_CURVE('',#275,#275,#231,.T.);
#340=EDGE_CURVE('',#276,#276,#232,.T.);
#341=EDGE_CURVE('',#276,#275,#170,.T.);
#342=EDGE_CURVE('',#277,#277,#233,.T.);
#343=EDGE_CURVE('',#277,#278,#171,.T.);
#344=EDGE_CURVE('',#278,#278,#234,.T.);
#345=ORIENTED_EDGE('',*,*,#279,.F.);
#346=ORIENTED_EDGE('',*,*,#280,.T.);
#347=ORIENTED_EDGE('',*,*,#281,.T.);
#348=ORIENTED_EDGE('',*,*,#280,.F.);
#349=ORIENTED_EDGE('',*,*,#281,.F.);
#350=ORIENTED_EDGE('',*,*,#282,.F.);
#351=ORIENTED_EDGE('',*,*,#283,.T.);
#352=ORIENTED_EDGE('',*,*,#284,.F.);
#353=ORIENTED_EDGE('',*,*,#283,.F.);
#354=ORIENTED_EDGE('',*,*,#285,.F.);
#355=ORIENTED_EDGE('',*,*,#286,.T.);
#356=ORIENTED_EDGE('',*,*,#287,.F.);
#357=ORIENTED_EDGE('',*,*,#286,.F.);
#358=ORIENTED_EDGE('',*,*,#288,.F.);
#359=ORIENTED_EDGE('',*,*,#289,.F.);
#360=ORIENTED_EDGE('',*,*,#288,.T.);
#361=ORIENTED_EDGE('',*,*,#290,.T.);
#362=ORIENTED_EDGE('',*,*,#291,.T.);
#363=ORIENTED_EDGE('',*,*,#292,.F.);
#364=ORIENTED_EDGE('',*,*,#293,.F.);
#365=ORIENTED_EDGE('',*,*,#294,.F.);
#366=ORIENTED_EDGE('',*,*,#295,.F.);
#367=ORIENTED_EDGE('',*,*,#296,.F.);
#368=ORIENTED_EDGE('',*,*,#297,.F.);
#369=ORIENTED_EDGE('',*,*,#293,.T.);
#370=ORIENTED_EDGE('',*,*,#298,.F.);
#371=ORIENTED_EDGE('',*,*,#299,.F.);
#372=ORIENTED_EDGE('',*,*,#300,.T.);
#373=ORIENTED_EDGE('',*,*,#301,.T.);
#374=ORIENTED_EDGE('',*,*,#302,.F.);
#375=ORIENTED_EDGE('',*,*,#303,.T.);
#376=ORIENTED_EDGE('',*,*,#304,.T.);
#377=ORIENTED_EDGE('',*,*,#305,.T.);
#378=ORIENTED_EDGE('',*,*,#306,.T.);
#379=ORIENTED_EDGE('',*,*,#299,.T.);
#380=ORIENTED_EDGE('',*,*,#307,.T.);
#381=ORIENTED_EDGE('',*,*,#303,.F.);
#382=ORIENTED_EDGE('',*,*,#297,.T.);
#383=ORIENTED_EDGE('',*,*,#308,.T.);
#384=ORIENTED_EDGE('',*,*,#290,.F.);
#385=ORIENTED_EDGE('',*,*,#289,.T.);
#386=ORIENTED_EDGE('',*,*,#291,.F.);
#387=ORIENTED_EDGE('',*,*,#308,.F.);
#388=ORIENTED_EDGE('',*,*,#296,.T.);
#389=ORIENTED_EDGE('',*,*,#309,.T.);
#390=ORIENTED_EDGE('',*,*,#301,.F.);
#391=ORIENTED_EDGE('',*,*,#309,.F.);
#392=ORIENTED_EDGE('',*,*,#295,.T.);
#393=ORIENTED_EDGE('',*,*,#310,.F.);
#394=ORIENTED_EDGE('',*,*,#305,.F.);
#395=ORIENTED_EDGE('',*,*,#311,.F.);
#396=ORIENTED_EDGE('',*,*,#294,.T.);
#397=ORIENTED_EDGE('',*,*,#300,.F.);
#398=ORIENTED_EDGE('',*,*,#306,.F.);
#399=ORIENTED_EDGE('',*,*,#310,.T.);
#400=ORIENTED_EDGE('',*,*,#312,.F.);
#401=ORIENTED_EDGE('',*,*,#313,.T.);
#402=ORIENTED_EDGE('',*,*,#314,.F.);
#403=ORIENTED_EDGE('',*,*,#313,.F.);
#404=ORIENTED_EDGE('',*,*,#312,.T.);
#405=ORIENTED_EDGE('',*,*,#315,.F.);
#406=ORIENTED_EDGE('',*,*,#316,.T.);
#407=ORIENTED_EDGE('',*,*,#317,.F.);
#408=ORIENTED_EDGE('',*,*,#318,.F.);
#409=ORIENTED_EDGE('',*,*,#319,.F.);
#410=ORIENTED_EDGE('',*,*,#318,.T.);
#411=ORIENTED_EDGE('',*,*,#320,.F.);
#412=ORIENTED_EDGE('',*,*,#321,.F.);
#413=ORIENTED_EDGE('',*,*,#322,.T.);
#414=ORIENTED_EDGE('',*,*,#321,.T.);
#415=ORIENTED_EDGE('',*,*,#323,.F.);
#416=ORIENTED_EDGE('',*,*,#324,.F.);
#417=ORIENTED_EDGE('',*,*,#325,.T.);
#418=ORIENTED_EDGE('',*,*,#324,.T.);
#419=ORIENTED_EDGE('',*,*,#326,.F.);
#420=ORIENTED_EDGE('',*,*,#327,.F.);
#421=ORIENTED_EDGE('',*,*,#328,.T.);
#422=ORIENTED_EDGE('',*,*,#327,.T.);
#423=ORIENTED_EDGE('',*,*,#329,.F.);
#424=ORIENTED_EDGE('',*,*,#330,.F.);
#425=ORIENTED_EDGE('',*,*,#331,.T.);
#426=ORIENTED_EDGE('',*,*,#330,.T.);
#427=ORIENTED_EDGE('',*,*,#332,.F.);
#428=ORIENTED_EDGE('',*,*,#333,.F.);
#429=ORIENTED_EDGE('',*,*,#334,.T.);
#430=ORIENTED_EDGE('',*,*,#333,.T.);
#431=ORIENTED_EDGE('',*,*,#335,.F.);
#432=ORIENTED_EDGE('',*,*,#336,.F.);
#433=ORIENTED_EDGE('',*,*,#337,.F.);
#434=ORIENTED_EDGE('',*,*,#336,.T.);
#435=ORIENTED_EDGE('',*,*,#338,.F.);
#436=ORIENTED_EDGE('',*,*,#316,.F.);
#437=ORIENTED_EDGE('',*,*,#337,.T.);
#438=ORIENTED_EDGE('',*,*,#315,.T.);
#439=ORIENTED_EDGE('',*,*,#319,.T.);
#440=ORIENTED_EDGE('',*,*,#322,.F.);
#441=ORIENTED_EDGE('',*,*,#325,.F.);
#442=ORIENTED_EDGE('',*,*,#328,.F.);
#443=ORIENTED_EDGE('',*,*,#331,.F.);
#444=ORIENTED_EDGE('',*,*,#334,.F.);
#445=ORIENTED_EDGE('',*,*,#282,.T.);
#446=ORIENTED_EDGE('',*,*,#285,.T.);
#447=ORIENTED_EDGE('',*,*,#292,.T.);
#448=ORIENTED_EDGE('',*,*,#311,.T.);
#449=ORIENTED_EDGE('',*,*,#304,.F.);
#450=ORIENTED_EDGE('',*,*,#307,.F.);
#451=ORIENTED_EDGE('',*,*,#298,.T.);
#452=ORIENTED_EDGE('',*,*,#338,.T.);
#453=ORIENTED_EDGE('',*,*,#335,.T.);
#454=ORIENTED_EDGE('',*,*,#332,.T.);
#455=ORIENTED_EDGE('',*,*,#329,.T.);
#456=ORIENTED_EDGE('',*,*,#326,.T.);
#457=ORIENTED_EDGE('',*,*,#323,.T.);
#458=ORIENTED_EDGE('',*,*,#320,.T.);
#459=ORIENTED_EDGE('',*,*,#317,.T.);
#460=ORIENTED_EDGE('',*,*,#284,.T.);
#461=ORIENTED_EDGE('',*,*,#287,.T.);
#462=ORIENTED_EDGE('',*,*,#314,.T.);
#463=ORIENTED_EDGE('',*,*,#302,.T.);
#464=ORIENTED_EDGE('',*,*,#279,.T.);
#465=ORIENTED_EDGE('',*,*,#339,.F.);
#466=ORIENTED_EDGE('',*,*,#340,.T.);
#467=ORIENTED_EDGE('',*,*,#340,.F.);
#468=ORIENTED_EDGE('',*,*,#341,.T.);
#469=ORIENTED_EDGE('',*,*,#339,.T.);
#470=ORIENTED_EDGE('',*,*,#341,.F.);
#471=ORIENTED_EDGE('',*,*,#342,.F.);
#472=ORIENTED_EDGE('',*,*,#343,.T.);
#473=ORIENTED_EDGE('',*,*,#344,.T.);
#474=ORIENTED_EDGE('',*,*,#343,.F.);
#475=ORIENTED_EDGE('',*,*,#342,.T.);
#476=ORIENTED_EDGE('',*,*,#344,.F.);
#477=CYLINDRICAL_SURFACE('',#537,2.5);
#478=CYLINDRICAL_SURFACE('',#541,1.6);
#479=CYLINDRICAL_SURFACE('',#544,1.6);
#480=CYLINDRICAL_SURFACE('',#549,16.5);
#481=CYLINDRICAL_SURFACE('',#554,16.5);
#482=CYLINDRICAL_SURFACE('',#555,16.5);
#483=CYLINDRICAL_SURFACE('',#560,2.25);
#484=CYLINDRICAL_SURFACE('',#561,2.25);
#485=CYLINDRICAL_SURFACE('',#564,14.5);
#486=CYLINDRICAL_SURFACE('',#583,2.25);
#487=CYLINDRICAL_SURFACE('',#584,2.25);
#488=ADVANCED_FACE('',(#53),#477,.F.);
#489=ADVANCED_FACE('',(#54),#31,.T.);
#490=ADVANCED_FACE('',(#55),#478,.F.);
#491=ADVANCED_FACE('',(#56),#479,.F.);
#492=ADVANCED_FACE('',(#57),#32,.T.);
#493=ADVANCED_FACE('',(#58),#480,.T.);
#494=ADVANCED_FACE('',(#59,#19,#20),#33,.T.);
#495=ADVANCED_FACE('',(#60),#34,.T.);
#496=ADVANCED_FACE('',(#61),#481,.T.);
#497=ADVANCED_FACE('',(#62),#482,.T.);
#498=ADVANCED_FACE('',(#63),#483,.F.);
#499=ADVANCED_FACE('',(#64),#484,.F.);
#500=ADVANCED_FACE('',(#65),#35,.T.);
#501=ADVANCED_FACE('',(#66),#36,.T.);
#502=ADVANCED_FACE('',(#67),#485,.T.);
#503=ADVANCED_FACE('',(#68),#37,.T.);
#504=ADVANCED_FACE('',(#69),#38,.T.);
#505=ADVANCED_FACE('',(#70),#39,.T.);
#506=ADVANCED_FACE('',(#71),#40,.T.);
#507=ADVANCED_FACE('',(#72),#41,.T.);
#508=ADVANCED_FACE('',(#73),#42,.T.);
#509=ADVANCED_FACE('',(#74),#43,.T.);
#510=ADVANCED_FACE('',(#75),#44,.T.);
#511=ADVANCED_FACE('',(#76),#45,.T.);
#512=ADVANCED_FACE('',(#77,#21,#22,#23),#46,.T.);
#513=ADVANCED_FACE('',(#78,#24,#25,#26),#47,.F.);
#514=ADVANCED_FACE('',(#79,#27),#48,.T.);
#515=ADVANCED_FACE('',(#80),#49,.F.);
#516=ADVANCED_FACE('',(#81),#50,.T.);
#517=ADVANCED_FACE('',(#82),#486,.T.);
#518=ADVANCED_FACE('',(#83),#487,.T.);
#519=ADVANCED_FACE('',(#84),#51,.T.);
#520=ADVANCED_FACE('',(#85),#52,.F.);
#521=CLOSED_SHELL('',(#488,#489,#490,#491,#492,#493,#494,#495,#496,#497,
#498,#499,#500,#501,#502,#503,#504,#505,#506,#507,#508,#509,#510,#511,#512,
#513,#514));
#522=CLOSED_SHELL('',(#515,#516,#517));
#523=CLOSED_SHELL('',(#518,#519,#520));
#524=DERIVED_UNIT_ELEMENT(#526,1.);
#525=DERIVED_UNIT_ELEMENT(#951,-3.);
#526=(
MASS_UNIT()
NAMED_UNIT(*)
SI_UNIT(.KILO.,.GRAM.)
);
#527=DERIVED_UNIT((#524,#525));
#528=MEASURE_REPRESENTATION_ITEM('density measure',
POSITIVE_RATIO_MEASURE(7850.),#527);
#529=PROPERTY_DEFINITION_REPRESENTATION(#534,#531);
#530=PROPERTY_DEFINITION_REPRESENTATION(#535,#532);
#531=REPRESENTATION('material name',(#533),#948);
#532=REPRESENTATION('density',(#528),#948);
#533=DESCRIPTIVE_REPRESENTATION_ITEM('\X2\94A2\X0\','\X2\94A2\X0\');
#534=PROPERTY_DEFINITION('material property','material name',#958);
#535=PROPERTY_DEFINITION('material property','density of part',#958);
#536=AXIS2_PLACEMENT_3D('',#739,#589,#590);
#537=AXIS2_PLACEMENT_3D('',#740,#591,#592);
#538=AXIS2_PLACEMENT_3D('',#742,#593,#594);
#539=AXIS2_PLACEMENT_3D('',#745,#596,#597);
#540=AXIS2_PLACEMENT_3D('',#746,#598,#599);
#541=AXIS2_PLACEMENT_3D('',#747,#600,#601);
#542=AXIS2_PLACEMENT_3D('',#749,#602,#603);
#543=AXIS2_PLACEMENT_3D('',#752,#605,#606);
#544=AXIS2_PLACEMENT_3D('',#753,#607,#608);
#545=AXIS2_PLACEMENT_3D('',#755,#609,#610);
#546=AXIS2_PLACEMENT_3D('',#758,#612,#613);
#547=AXIS2_PLACEMENT_3D('',#759,#614,#615);
#548=AXIS2_PLACEMENT_3D('',#763,#617,#618);
#549=AXIS2_PLACEMENT_3D('',#764,#619,#620);
#550=AXIS2_PLACEMENT_3D('',#798,#621,#622);
#551=AXIS2_PLACEMENT_3D('',#808,#627,#628);
#552=AXIS2_PLACEMENT_3D('',#810,#629,#630);
#553=AXIS2_PLACEMENT_3D('',#811,#631,#632);
#554=AXIS2_PLACEMENT_3D('',#817,#636,#637);
#555=AXIS2_PLACEMENT_3D('',#853,#638,#639);
#556=AXIS2_PLACEMENT_3D('',#855,#640,#641);
#557=AXIS2_PLACEMENT_3D('',#859,#643,#644);
#558=AXIS2_PLACEMENT_3D('',#862,#646,#647);
#559=AXIS2_PLACEMENT_3D('',#863,#648,#649);
#560=AXIS2_PLACEMENT_3D('',#864,#650,#651);
#561=AXIS2_PLACEMENT_3D('',#866,#653,#654);
#562=AXIS2_PLACEMENT_3D('',#868,#656,#657);
#563=AXIS2_PLACEMENT_3D('',#871,#660,#661);
#564=AXIS2_PLACEMENT_3D('',#872,#662,#663);
#565=AXIS2_PLACEMENT_3D('',#874,#664,#665);
#566=AXIS2_PLACEMENT_3D('',#877,#667,#668);
#567=AXIS2_PLACEMENT_3D('',#878,#669,#670);
#568=AXIS2_PLACEMENT_3D('',#879,#671,#672);
#569=AXIS2_PLACEMENT_3D('',#888,#677,#678);
#570=AXIS2_PLACEMENT_3D('',#894,#682,#683);
#571=AXIS2_PLACEMENT_3D('',#900,#687,#688);
#572=AXIS2_PLACEMENT_3D('',#906,#692,#693);
#573=AXIS2_PLACEMENT_3D('',#912,#697,#698);
#574=AXIS2_PLACEMENT_3D('',#918,#702,#703);
#575=AXIS2_PLACEMENT_3D('',#924,#707,#708);
#576=AXIS2_PLACEMENT_3D('',#927,#711,#712);
#577=AXIS2_PLACEMENT_3D('',#928,#713,#714);
#578=AXIS2_PLACEMENT_3D('',#929,#715,#716);
#579=AXIS2_PLACEMENT_3D('',#930,#717,#718);
#580=AXIS2_PLACEMENT_3D('',#932,#719,#720);
#581=AXIS2_PLACEMENT_3D('',#933,#721,#722);
#582=AXIS2_PLACEMENT_3D('',#935,#723,#724);
#583=AXIS2_PLACEMENT_3D('',#936,#725,#726);
#584=AXIS2_PLACEMENT_3D('',#938,#728,#729);
#585=AXIS2_PLACEMENT_3D('',#940,#730,#731);
#586=AXIS2_PLACEMENT_3D('',#943,#733,#734);
#587=AXIS2_PLACEMENT_3D('',#944,#735,#736);
#588=AXIS2_PLACEMENT_3D('',#945,#737,#738);
#589=DIRECTION('axis',(0.,0.,1.));
#590=DIRECTION('refdir',(1.,0.,0.));
#591=DIRECTION('center_axis',(0.,-1.,0.));
#592=DIRECTION('ref_axis',(-1.,0.,0.));
#593=DIRECTION('center_axis',(0.,-1.,0.));
#594=DIRECTION('ref_axis',(-1.,0.,0.));
#595=DIRECTION('',(0.,-1.,0.));
#596=DIRECTION('center_axis',(0.,-1.,0.));
#597=DIRECTION('ref_axis',(-1.,0.,0.));
#598=DIRECTION('center_axis',(0.,1.,0.));
#599=DIRECTION('ref_axis',(-1.,0.,0.));
#600=DIRECTION('center_axis',(0.,-1.,0.));
#601=DIRECTION('ref_axis',(1.,0.,0.));
#602=DIRECTION('center_axis',(0.,-1.,0.));
#603=DIRECTION('ref_axis',(1.,0.,0.));
#604=DIRECTION('',(0.,-1.,0.));
#605=DIRECTION('center_axis',(0.,1.,0.));
#606=DIRECTION('ref_axis',(1.,0.,0.));
#607=DIRECTION('center_axis',(0.,-1.,0.));
#608=DIRECTION('ref_axis',(1.,0.,0.));
#609=DIRECTION('center_axis',(0.,-1.,0.));
#610=DIRECTION('ref_axis',(1.,0.,0.));
#611=DIRECTION('',(0.,-1.,0.));
#612=DIRECTION('center_axis',(0.,1.,0.));
#613=DIRECTION('ref_axis',(1.,0.,0.));
#614=DIRECTION('center_axis',(0.,0.,-1.));
#615=DIRECTION('ref_axis',(-1.,0.,0.));
#616=DIRECTION('',(0.,1.,0.));
#617=DIRECTION('center_axis',(0.,0.,1.));
#618=DIRECTION('ref_axis',(-1.,0.,0.));
#619=DIRECTION('center_axis',(0.,1.,0.));
#620=DIRECTION('ref_axis',(1.,0.,0.));
#621=DIRECTION('center_axis',(0.,0.,-1.));
#622=DIRECTION('ref_axis',(-1.,0.,0.));
#623=DIRECTION('',(1.,0.,0.));
#624=DIRECTION('',(0.,-1.,0.));
#625=DIRECTION('',(-1.,0.,0.));
#626=DIRECTION('',(0.,1.,0.));
#627=DIRECTION('center_axis',(0.,0.,-1.));
#628=DIRECTION('ref_axis',(-1.,0.,0.));
#629=DIRECTION('center_axis',(0.,0.,-1.));
#630=DIRECTION('ref_axis',(-1.,0.,0.));
#631=DIRECTION('center_axis',(-1.,0.,0.));
#632=DIRECTION('ref_axis',(0.,1.,0.));
#633=DIRECTION('',(0.,0.,-1.));
#634=DIRECTION('',(0.,-1.,0.));
#635=DIRECTION('',(0.,0.,-1.));
#636=DIRECTION('center_axis',(0.,1.,0.));
#637=DIRECTION('ref_axis',(1.,0.,0.));
#638=DIRECTION('center_axis',(0.,1.,0.));
#639=DIRECTION('ref_axis',(1.,0.,0.));
#640=DIRECTION('center_axis',(0.,1.,0.));
#641=DIRECTION('ref_axis',(1.,0.,0.));
#642=DIRECTION('',(0.,-1.,0.));
#643=DIRECTION('center_axis',(0.,1.,0.));
#644=DIRECTION('ref_axis',(1.,0.,0.));
#645=DIRECTION('',(0.,1.,0.));
#646=DIRECTION('center_axis',(0.,1.,0.));
#647=DIRECTION('ref_axis',(1.,0.,0.));
#648=DIRECTION('center_axis',(0.,1.,0.));
#649=DIRECTION('ref_axis',(1.,0.,0.));
#650=DIRECTION('center_axis',(0.,0.,-1.));
#651=DIRECTION('ref_axis',(-1.,0.,0.));
#652=DIRECTION('',(0.,0.,1.));
#653=DIRECTION('center_axis',(0.,0.,-1.));
#654=DIRECTION('ref_axis',(-1.,0.,0.));
#655=DIRECTION('',(0.,0.,1.));
#656=DIRECTION('center_axis',(1.,0.,0.));
#657=DIRECTION('ref_axis',(0.,-1.,0.));
#658=DIRECTION('',(0.,0.,-1.));
#659=DIRECTION('',(0.,0.,1.));
#660=DIRECTION('center_axis',(0.,1.,0.));
#661=DIRECTION('ref_axis',(1.,0.,0.));
#662=DIRECTION('center_axis',(0.,-1.,0.));
#663=DIRECTION('ref_axis',(1.,0.,0.));
#664=DIRECTION('center_axis',(0.,-1.,0.));
#665=DIRECTION('ref_axis',(1.,0.,0.));
#666=DIRECTION('',(0.,1.,0.));
#667=DIRECTION('center_axis',(0.,1.,0.));
#668=DIRECTION('ref_axis',(1.,0.,0.));
#669=DIRECTION('center_axis',(0.,-1.,0.));
#670=DIRECTION('ref_axis',(1.,0.,0.));
#671=DIRECTION('center_axis',(-1.,0.,0.));
#672=DIRECTION('ref_axis',(0.,0.,-1.));
#673=DIRECTION('',(0.,0.,1.));
#674=DIRECTION('',(0.,-1.,0.));
#675=DIRECTION('',(0.,0.,-1.));
#676=DIRECTION('',(0.,-1.,0.));
#677=DIRECTION('center_axis',(-0.707106781186547,0.,0.707106781186548));
#678=DIRECTION('ref_axis',(-0.707106781186548,0.,-0.707106781186547));
#679=DIRECTION('',(0.707106781186548,0.,0.707106781186547));
#680=DIRECTION('',(-0.707106781186548,0.,-0.707106781186547));
#681=DIRECTION('',(0.,-1.,0.));
#682=DIRECTION('center_axis',(1.22203965286203E-16,0.,1.));
#683=DIRECTION('ref_axis',(-1.,0.,1.22203965286203E-16));
#684=DIRECTION('',(-1.,0.,1.22203965286203E-16));
#685=DIRECTION('',(-1.,0.,1.22203965286203E-16));
#686=DIRECTION('',(0.,-1.,0.));
#687=DIRECTION('center_axis',(0.707106781186547,0.,0.707106781186548));
#688=DIRECTION('ref_axis',(-0.707106781186548,0.,0.707106781186547));
#689=DIRECTION('',(-0.707106781186548,0.,0.707106781186547));
#690=DIRECTION('',(-0.707106781186548,0.,0.707106781186547));
#691=DIRECTION('',(0.,-1.,0.));
#692=DIRECTION('center_axis',(1.,0.,0.));
#693=DIRECTION('ref_axis',(0.,0.,1.));
#694=DIRECTION('',(0.,0.,1.));
#695=DIRECTION('',(0.,0.,1.));
#696=DIRECTION('',(0.,-1.,0.));
#697=DIRECTION('center_axis',(0.707106781186547,0.,-0.707106781186548));
#698=DIRECTION('ref_axis',(0.707106781186548,0.,0.707106781186547));
#699=DIRECTION('',(0.707106781186548,0.,0.707106781186547));
#700=DIRECTION('',(0.707106781186548,0.,0.707106781186547));
#701=DIRECTION('',(0.,-1.,0.));
#702=DIRECTION('center_axis',(0.,0.,-1.));
#703=DIRECTION('ref_axis',(1.,0.,0.));
#704=DIRECTION('',(1.,0.,0.));
#705=DIRECTION('',(1.,0.,0.));
#706=DIRECTION('',(0.,-1.,0.));
#707=DIRECTION('center_axis',(-0.707106781186547,0.,-0.707106781186548));
#708=DIRECTION('ref_axis',(0.707106781186548,0.,-0.707106781186547));
#709=DIRECTION('',(-0.707106781186548,0.,0.707106781186547));
#710=DIRECTION('',(0.707106781186548,0.,-0.707106781186547));
#711=DIRECTION('center_axis',(0.,1.,0.));
#712=DIRECTION('ref_axis',(1.,0.,0.));
#713=DIRECTION('center_axis',(0.,1.,0.));
#714=DIRECTION('ref_axis',(1.,0.,0.));
#715=DIRECTION('center_axis',(0.,1.,0.));
#716=DIRECTION('ref_axis',(1.,0.,0.));
#717=DIRECTION('center_axis',(0.,0.,-1.));
#718=DIRECTION('ref_axis',(-1.,0.,0.));
#719=DIRECTION('center_axis',(0.,0.,-1.));
#720=DIRECTION('ref_axis',(-1.,0.,0.));
#721=DIRECTION('center_axis',(0.,0.,-1.));
#722=DIRECTION('ref_axis',(-1.,0.,0.));
#723=DIRECTION('center_axis',(0.,0.,-1.));
#724=DIRECTION('ref_axis',(-1.,0.,0.));
#725=DIRECTION('center_axis',(0.,0.,-1.));
#726=DIRECTION('ref_axis',(-1.,0.,0.));
#727=DIRECTION('',(0.,0.,1.));
#728=DIRECTION('center_axis',(0.,0.,-1.));
#729=DIRECTION('ref_axis',(-1.,0.,0.));
#730=DIRECTION('center_axis',(0.,0.,-1.));
#731=DIRECTION('ref_axis',(-1.,0.,0.));
#732=DIRECTION('',(0.,0.,1.));
#733=DIRECTION('center_axis',(0.,0.,-1.));
#734=DIRECTION('ref_axis',(-1.,0.,0.));
#735=DIRECTION('center_axis',(0.,0.,-1.));
#736=DIRECTION('ref_axis',(-1.,0.,0.));
#737=DIRECTION('center_axis',(0.,0.,-1.));
#738=DIRECTION('ref_axis',(-1.,0.,0.));
#739=CARTESIAN_POINT('',(0.,0.,0.));
#740=CARTESIAN_POINT('Origin',(23.6945647256167,20.,-31.0259251260278));
#741=CARTESIAN_POINT('',(26.1945647256167,20.,-31.0259251260278));
#742=CARTESIAN_POINT('Origin',(23.6945647256167,20.,-31.0259251260278));
#743=CARTESIAN_POINT('',(26.1945647256167,18.,-31.0259251260278));
#744=CARTESIAN_POINT('',(26.1945647256167,20.,-31.0259251260278));
#745=CARTESIAN_POINT('Origin',(23.6945647256167,18.,-31.0259251260278));
#746=CARTESIAN_POINT('Origin',(23.6945647256167,18.,-31.0259251260278));
#747=CARTESIAN_POINT('Origin',(47.9445647255736,0.,-30.783584538919));
#748=CARTESIAN_POINT('',(46.3445647255736,0.,-30.783584538919));
#749=CARTESIAN_POINT('Origin',(47.9445647255736,0.,-30.783584538919));
#750=CARTESIAN_POINT('',(46.3445647255736,-3.5,-30.783584538919));
#751=CARTESIAN_POINT('',(46.3445647255736,0.,-30.783584538919));
#752=CARTESIAN_POINT('Origin',(47.9445647255736,-3.5,-30.783584538919));
#753=CARTESIAN_POINT('Origin',(-0.555435274382837,6.,-30.7836495814153));
#754=CARTESIAN_POINT('',(-2.15543527438284,0.,-30.7836495814153));
#755=CARTESIAN_POINT('Origin',(-0.555435274382837,0.,-30.7836495814153));
#756=CARTESIAN_POINT('',(-2.15543527438284,-3.5,-30.7836495814153));
#757=CARTESIAN_POINT('',(-2.15543527438284,6.,-30.7836495814153));
#758=CARTESIAN_POINT('Origin',(-0.555435274382837,-3.5,-30.7836495814153));
#759=CARTESIAN_POINT('Origin',(29.2272621043394,4.32694103779327,-47.1539251260278));
#760=CARTESIAN_POINT('',(27.1784728759558,3.39690732998517,-47.1539251260278));
#761=CARTESIAN_POINT('',(27.1784728759558,5.25697474560136,-47.1539251260278));
#762=CARTESIAN_POINT('',(27.1784728759558,0.,-47.1539251260278));
#763=CARTESIAN_POINT('Origin',(29.2272621043394,4.32694103779327,-47.1539251260278));
#764=CARTESIAN_POINT('Origin',(23.6945647256167,0.,-31.0259251260278));
#765=CARTESIAN_POINT('',(31.4772621043394,4.32694103779327,-45.5751389024221));
#766=CARTESIAN_POINT('Ctrl Pts',(27.1784728759558,5.25697474560136,-47.1539251260278));
#767=CARTESIAN_POINT('Ctrl Pts',(27.2904150313206,5.50357428300289,-47.1297438148025));
#768=CARTESIAN_POINT('Ctrl Pts',(27.4481014058918,5.72725686646953,-47.094351316478));
#769=CARTESIAN_POINT('Ctrl Pts',(27.8299666202225,6.11435405976164,-47.000679595037));
#770=CARTESIAN_POINT('Ctrl Pts',(28.0882955194873,6.29083973929729,-46.9328493278294));
#771=CARTESIAN_POINT('Ctrl Pts',(28.6478666104996,6.52203641737582,-46.7675866762359));
#772=CARTESIAN_POINT('Ctrl Pts',(28.9489084548273,6.57694103779327,-46.6697471638995));
#773=CARTESIAN_POINT('Ctrl Pts',(29.5171681153254,6.57694103779327,-46.4674918244738));
#774=CARTESIAN_POINT('Ctrl Pts',(29.8236939323348,6.51783930164939,-46.3483566628958));
#775=CARTESIAN_POINT('Ctrl Pts',(30.3861026607456,6.27959425262756,-46.1112309932804));
#776=CARTESIAN_POINT('Ctrl Pts',(30.6421792425064,6.10054984421344,-45.9936006430146));
#777=CARTESIAN_POINT('Ctrl Pts',(31.031577876364,5.69770630430346,-45.8063544025547));
#778=CARTESIAN_POINT('Ctrl Pts',(31.1975710529626,5.45243000189228,-45.7218662714396));
#779=CARTESIAN_POINT('Ctrl Pts',(31.4205284715829,4.90868392353402,-45.6058865372608));
#780=CARTESIAN_POINT('Ctrl Pts',(31.4772621043394,4.60996121036625,-45.5751389024221));
#781=CARTESIAN_POINT('Ctrl Pts',(31.4772621043394,4.32694103779327,-45.5751389024221));
#782=CARTESIAN_POINT('Ctrl Pts',(31.4772621043394,4.32694103779327,-45.5751389024221));
#783=CARTESIAN_POINT('Ctrl Pts',(31.4772621043394,4.04392086522028,-45.5751389024221));
#784=CARTESIAN_POINT('Ctrl Pts',(31.4205284715829,3.74519815205251,-45.6058865372608));
#785=CARTESIAN_POINT('Ctrl Pts',(31.1975710529626,3.20145207369425,-45.7218662714396));
#786=CARTESIAN_POINT('Ctrl Pts',(31.031577876364,2.95617577128308,-45.8063544025547));
#787=CARTESIAN_POINT('Ctrl Pts',(30.6421792425064,2.5533322313731,-45.9936006430146));
#788=CARTESIAN_POINT('Ctrl Pts',(30.3861026607456,2.37428782295897,-46.1112309932804));
#789=CARTESIAN_POINT('Ctrl Pts',(29.8236939323348,2.13604277393714,-46.3483566628958));
#790=CARTESIAN_POINT('Ctrl Pts',(29.5171681153254,2.07694103779327,-46.4674918244738));
#791=CARTESIAN_POINT('Ctrl Pts',(28.9489084548273,2.07694103779327,-46.6697471638995));
#792=CARTESIAN_POINT('Ctrl Pts',(28.6478666104996,2.13184565821071,-46.7675866762359));
#793=CARTESIAN_POINT('Ctrl Pts',(28.0882955194873,2.36304233628924,-46.9328493278294));
#794=CARTESIAN_POINT('Ctrl Pts',(27.8299666202225,2.53952801582489,-47.000679595037));
#795=CARTESIAN_POINT('Ctrl Pts',(27.4481014058918,2.926625209117,-47.094351316478));
#796=CARTESIAN_POINT('Ctrl Pts',(27.2904150313206,3.15030779258364,-47.1297438148025));
#797=CARTESIAN_POINT('Ctrl Pts',(27.1784728759558,3.39690732998517,-47.1539251260278));
#798=CARTESIAN_POINT('Origin',(23.6945647256167,4.32694103779327,-50.1759251260278));
#799=CARTESIAN_POINT('',(14.6095647256167,0.,-50.1759251260278));
#800=CARTESIAN_POINT('',(32.7795647256167,0.,-50.1759251260278));
#801=CARTESIAN_POINT('',(14.6095647256167,0.,-50.1759251260278));
#802=CARTESIAN_POINT('',(14.6095647256167,8.65388207558653,-50.1759251260278));
#803=CARTESIAN_POINT('',(14.6095647256167,2.16347051889663,-50.1759251260278));
#804=CARTESIAN_POINT('',(32.7795647256167,8.65388207558653,-50.1759251260278));
#805=CARTESIAN_POINT('',(19.1520647256167,8.65388207558653,-50.1759251260278));
#806=CARTESIAN_POINT('',(32.7795647256167,6.4904115566899,-50.1759251260278));
#807=CARTESIAN_POINT('',(20.210887326689,4.32694103779327,-50.1759251260278));
#808=CARTESIAN_POINT('Origin',(17.960887326689,4.32694103779327,-50.1759251260278));
#809=CARTESIAN_POINT('',(31.4772621043394,4.32694103779327,-50.1759251260278));
#810=CARTESIAN_POINT('Origin',(29.2272621043394,4.32694103779327,-50.1759251260278));
#811=CARTESIAN_POINT('Origin',(14.6095647256167,0.,-51.1759251260278));
#812=CARTESIAN_POINT('',(14.6095647256167,0.,-44.7995511918102));
#813=CARTESIAN_POINT('',(14.6095647256167,0.,-41.1009251260278));
#814=CARTESIAN_POINT('',(14.6095647256167,8.65388207558653,-44.7995511918102));
#815=CARTESIAN_POINT('',(14.6095647256167,0.,-44.7995511918102));
#816=CARTESIAN_POINT('',(14.6095647256167,8.65388207558653,-51.1759251260278));
#817=CARTESIAN_POINT('Origin',(23.6945647256167,0.,-31.0259251260278));
#818=CARTESIAN_POINT('',(20.210887326689,4.32694103779327,-47.153974970327));
#819=CARTESIAN_POINT('Ctrl Pts',(20.210887326689,4.32694103779327,-47.153974970327));
#820=CARTESIAN_POINT('Ctrl Pts',(20.210887326689,4.0455369986823,-47.153974970327));
#821=CARTESIAN_POINT('Ctrl Pts',(20.1547946031844,3.74576713565013,-47.1421748166103));
#822=CARTESIAN_POINT('Ctrl Pts',(19.9283776914766,3.19558182459954,-47.0907722164179));
#823=CARTESIAN_POINT('Ctrl Pts',(19.7580892957789,2.9451926155004,-47.0507322057252));
#824=CARTESIAN_POINT('Ctrl Pts',(19.3589267746823,2.53998972395662,-46.9475146947753));
#825=CARTESIAN_POINT('Ctrl Pts',(19.1001912991621,2.36319856174894,-46.8760872394591));
#826=CARTESIAN_POINT('Ctrl Pts',(18.5401588879844,2.13177763190994,-46.7029148481193));
#827=CARTESIAN_POINT('Ctrl Pts',(18.2390728682083,2.07694103779327,-46.6007645769167));
#828=CARTESIAN_POINT('Ctrl Pts',(17.6706021791276,2.07694103779327,-46.3900949206774));
#829=CARTESIAN_POINT('Ctrl Pts',(17.3637609772626,2.13617865898286,-46.2661786177325));
#830=CARTESIAN_POINT('Ctrl Pts',(16.8007625146144,2.3749907358348,-46.0199203800709));
#831=CARTESIAN_POINT('Ctrl Pts',(16.5444044430067,2.5544595509618,-45.8979352766791));
#832=CARTESIAN_POINT('Ctrl Pts',(16.1556023949297,2.95763292017839,-45.7043812241703));
#833=CARTESIAN_POINT('Ctrl Pts',(15.9901048631883,3.20239442221336,-45.6172668018116));
#834=CARTESIAN_POINT('Ctrl Pts',(15.7676251612634,3.74540080672374,-45.4976072426922));
#835=CARTESIAN_POINT('Ctrl Pts',(15.710887326689,4.04391500519478,-45.465831468863));
#836=CARTESIAN_POINT('Ctrl Pts',(15.710887326689,4.60996707039176,-45.465831468863));
#837=CARTESIAN_POINT('Ctrl Pts',(15.7676251612634,4.90848126886279,-45.4976072426922));
#838=CARTESIAN_POINT('Ctrl Pts',(15.9901048631883,5.45148765337317,-45.6172668018116));
#839=CARTESIAN_POINT('Ctrl Pts',(16.1556023949297,5.69624915540814,-45.7043812241703));
#840=CARTESIAN_POINT('Ctrl Pts',(16.5444044430067,6.09942252462473,-45.8979352766791));
#841=CARTESIAN_POINT('Ctrl Pts',(16.8007625146144,6.27889133975174,-46.0199203800709));
#842=CARTESIAN_POINT('Ctrl Pts',(17.3637609772626,6.51770341660367,-46.2661786177325));
#843=CARTESIAN_POINT('Ctrl Pts',(17.6706021791276,6.57694103779327,-46.3900949206774));
#844=CARTESIAN_POINT('Ctrl Pts',(18.2390728682083,6.57694103779327,-46.6007645769167));
#845=CARTESIAN_POINT('Ctrl Pts',(18.5401588879844,6.52210444367659,-46.7029148481193));
#846=CARTESIAN_POINT('Ctrl Pts',(19.1001912991621,6.29068351383759,-46.8760872394591));
#847=CARTESIAN_POINT('Ctrl Pts',(19.3589267746823,6.11389235162991,-46.9475146947753));
#848=CARTESIAN_POINT('Ctrl Pts',(19.7580892957789,5.70868946008613,-47.0507322057252));
#849=CARTESIAN_POINT('Ctrl Pts',(19.9283776914766,5.45830025098699,-47.0907722164179));
#850=CARTESIAN_POINT('Ctrl Pts',(20.1547946031844,4.9081149399364,-47.1421748166103));
#851=CARTESIAN_POINT('Ctrl Pts',(20.210887326689,4.60834507690423,-47.153974970327));
#852=CARTESIAN_POINT('Ctrl Pts',(20.210887326689,4.32694103779327,-47.153974970327));
#853=CARTESIAN_POINT('Origin',(23.6945647256167,0.,-31.0259251260278));
#854=CARTESIAN_POINT('',(7.19456472561665,20.,-31.0259251260278));
#855=CARTESIAN_POINT('Origin',(23.6945647256167,20.,-31.0259251260278));
#856=CARTESIAN_POINT('',(7.19456472561665,0.,-31.0259251260278));
#857=CARTESIAN_POINT('',(7.19456472561665,0.,-31.0259251260278));
#858=CARTESIAN_POINT('',(32.7795647256167,0.,-44.7995511918102));
#859=CARTESIAN_POINT('Origin',(23.6945647256167,0.,-31.0259251260278));
#860=CARTESIAN_POINT('',(32.7795647256167,8.65388207558653,-44.7995511918102));
#861=CARTESIAN_POINT('',(32.7795647256167,0.,-44.7995511918102));
#862=CARTESIAN_POINT('Origin',(23.6945647256167,8.65388207558653,-31.0259251260278));
#863=CARTESIAN_POINT('Origin',(23.6945647256167,0.,-31.0259251260278));
#864=CARTESIAN_POINT('Origin',(29.2272621043394,4.32694103779327,-51.1759251260278));
#865=CARTESIAN_POINT('',(31.4772621043394,4.32694103779327,-51.1759251260278));
#866=CARTESIAN_POINT('Origin',(17.960887326689,4.32694103779327,-51.1759251260278));
#867=CARTESIAN_POINT('',(20.210887326689,4.32694103779327,-51.1759251260278));
#868=CARTESIAN_POINT('Origin',(32.7795647256167,8.65388207558653,-51.1759251260278));
#869=CARTESIAN_POINT('',(32.7795647256167,8.65388207558653,-51.1759251260278));
#870=CARTESIAN_POINT('',(32.7795647256167,0.,-41.1009251260278));
#871=CARTESIAN_POINT('Origin',(14.6095647256167,8.65388207558653,-51.1759251260278));
#872=CARTESIAN_POINT('Origin',(23.6945647256167,-3.5,-31.0259251260278));
#873=CARTESIAN_POINT('',(9.19456472561665,-47.5,-31.0259251260278));
#874=CARTESIAN_POINT('Origin',(23.6945647256167,-47.5,-31.0259251260278));
#875=CARTESIAN_POINT('',(9.19456472561665,-3.5,-31.0259251260278));
#876=CARTESIAN_POINT('',(9.19456472561665,-3.5,-31.0259251260278));
#877=CARTESIAN_POINT('Origin',(23.6945647256167,-3.5,-31.0259251260278));
#878=CARTESIAN_POINT('Origin',(23.6945647256167,-47.5,-31.0259251260278));
#879=CARTESIAN_POINT('Origin',(-3.55543527438336,0.,-29.0409251260277));
#880=CARTESIAN_POINT('',(-3.55543527438336,0.,-33.0109251260278));
#881=CARTESIAN_POINT('',(-3.55543527438336,0.,-29.0409251260277));
#882=CARTESIAN_POINT('',(-3.55543527438336,0.,-33.0109251260278));
#883=CARTESIAN_POINT('',(-3.55543527438336,-3.5,-33.0109251260278));
#884=CARTESIAN_POINT('',(-3.55543527438336,0.,-33.0109251260278));
#885=CARTESIAN_POINT('',(-3.55543527438336,-3.5,-29.0409251260277));
#886=CARTESIAN_POINT('',(-3.55543527438336,-3.5,-33.0109251260278));
#887=CARTESIAN_POINT('',(-3.55543527438336,0.,-29.0409251260277));
#888=CARTESIAN_POINT('Origin',(14.6095647256167,0.,-10.8759251260278));
#889=CARTESIAN_POINT('',(14.6095647256167,0.,-10.8759251260278));
#890=CARTESIAN_POINT('',(-3.55543527438336,0.,-29.0409251260277));
#891=CARTESIAN_POINT('',(14.6095647256167,-3.5,-10.8759251260278));
#892=CARTESIAN_POINT('',(-3.55543527438336,-3.5,-29.0409251260277));
#893=CARTESIAN_POINT('',(14.6095647256167,0.,-10.8759251260278));
#894=CARTESIAN_POINT('Origin',(32.7795647256167,0.,-10.8759251260278));
#895=CARTESIAN_POINT('',(32.7795647256167,0.,-10.8759251260278));
#896=CARTESIAN_POINT('',(32.7795647256167,0.,-10.8759251260278));
#897=CARTESIAN_POINT('',(32.7795647256167,-3.5,-10.8759251260278));
#898=CARTESIAN_POINT('',(32.7795647256167,-3.5,-10.8759251260278));
#899=CARTESIAN_POINT('',(32.7795647256167,0.,-10.8759251260278));
#900=CARTESIAN_POINT('Origin',(50.9445647256166,0.,-29.0409251260277));
#901=CARTESIAN_POINT('',(50.9445647256166,0.,-29.0409251260277));
#902=CARTESIAN_POINT('',(50.9445647256166,0.,-29.0409251260277));
#903=CARTESIAN_POINT('',(50.9445647256166,-3.5,-29.0409251260277));
#904=CARTESIAN_POINT('',(50.9445647256166,-3.5,-29.0409251260277));
#905=CARTESIAN_POINT('',(50.9445647256166,0.,-29.0409251260277));
#906=CARTESIAN_POINT('Origin',(50.9445647256166,0.,-33.0109251260278));
#907=CARTESIAN_POINT('',(50.9445647256166,0.,-33.0109251260278));
#908=CARTESIAN_POINT('',(50.9445647256166,0.,-33.0109251260278));
#909=CARTESIAN_POINT('',(50.9445647256166,-3.5,-33.0109251260278));
#910=CARTESIAN_POINT('',(50.9445647256166,-3.5,-33.0109251260278));
#911=CARTESIAN_POINT('',(50.9445647256166,0.,-33.0109251260278));
#912=CARTESIAN_POINT('Origin',(32.7795647256167,0.,-51.1759251260278));
#913=CARTESIAN_POINT('',(32.7795647256167,0.,-51.1759251260278));
#914=CARTESIAN_POINT('',(32.7795647256167,0.,-51.1759251260278));
#915=CARTESIAN_POINT('',(32.7795647256167,-3.5,-51.1759251260278));
#916=CARTESIAN_POINT('',(32.7795647256167,-3.5,-51.1759251260278));
#917=CARTESIAN_POINT('',(32.7795647256167,0.,-51.1759251260278));
#918=CARTESIAN_POINT('Origin',(14.6095647256167,0.,-51.1759251260278));
#919=CARTESIAN_POINT('',(14.6095647256167,0.,-51.1759251260278));
#920=CARTESIAN_POINT('',(14.6095647256167,0.,-51.1759251260278));
#921=CARTESIAN_POINT('',(14.6095647256167,-3.5,-51.1759251260278));
#922=CARTESIAN_POINT('',(14.6095647256167,-3.5,-51.1759251260278));
#923=CARTESIAN_POINT('',(14.6095647256167,0.,-51.1759251260278));
#924=CARTESIAN_POINT('Origin',(-3.55543527438336,0.,-33.0109251260278));
#925=CARTESIAN_POINT('',(14.6095647256167,0.,-51.1759251260278));
#926=CARTESIAN_POINT('',(14.6095647256167,-3.5,-51.1759251260278));
#927=CARTESIAN_POINT('Origin',(23.6945647256166,0.,-31.0259251260278));
#928=CARTESIAN_POINT('Origin',(23.6945647256166,-3.5,-31.0259251260278));
#929=CARTESIAN_POINT('Origin',(23.6945647256167,20.,-31.0259251260278));
#930=CARTESIAN_POINT('Origin',(17.960887326689,4.32694103779327,-50.1759251260278));
#931=CARTESIAN_POINT('',(20.210887326689,4.32694103779327,-50.1759251260278));
#932=CARTESIAN_POINT('Origin',(17.960887326689,4.32694103779327,-50.1759251260278));
#933=CARTESIAN_POINT('Origin',(17.960887326689,4.32694103779327,-60.1759251260278));
#934=CARTESIAN_POINT('',(20.210887326689,4.32694103779327,-60.1759251260278));
#935=CARTESIAN_POINT('Origin',(17.960887326689,4.32694103779327,-60.1759251260278));
#936=CARTESIAN_POINT('Origin',(17.960887326689,4.32694103779327,-50.1759251260278));
#937=CARTESIAN_POINT('',(20.210887326689,4.32694103779327,-50.1759251260278));
#938=CARTESIAN_POINT('Origin',(29.2272621043394,4.32694103779327,-50.1759251260278));
#939=CARTESIAN_POINT('',(31.4772621043394,4.32694103779327,-60.1759251260278));
#940=CARTESIAN_POINT('Origin',(29.2272621043394,4.32694103779327,-60.1759251260278));
#941=CARTESIAN_POINT('',(31.4772621043394,4.32694103779327,-50.1759251260278));
#942=CARTESIAN_POINT('',(31.4772621043394,4.32694103779327,-50.1759251260278));
#943=CARTESIAN_POINT('Origin',(29.2272621043394,4.32694103779327,-50.1759251260278));
#944=CARTESIAN_POINT('Origin',(29.2272621043394,4.32694103779327,-60.1759251260278));
#945=CARTESIAN_POINT('Origin',(29.2272621043394,4.32694103779327,-50.1759251260278));
#946=UNCERTAINTY_MEASURE_WITH_UNIT(LENGTH_MEASURE(0.01),#950,
'DISTANCE_ACCURACY_VALUE',
'Maximum model space distance between geometric entities at asserted c
onnectivities');
#947=UNCERTAINTY_MEASURE_WITH_UNIT(LENGTH_MEASURE(0.01),#950,
'DISTANCE_ACCURACY_VALUE',
'Maximum model space distance between geometric entities at asserted c
onnectivities');
#948=(
GEOMETRIC_REPRESENTATION_CONTEXT(3)
GLOBAL_UNCERTAINTY_ASSIGNED_CONTEXT((#946))
GLOBAL_UNIT_ASSIGNED_CONTEXT((#950,#952,#953))
REPRESENTATION_CONTEXT('','3D')
);
#949=(
GEOMETRIC_REPRESENTATION_CONTEXT(3)
GLOBAL_UNCERTAINTY_ASSIGNED_CONTEXT((#947))
GLOBAL_UNIT_ASSIGNED_CONTEXT((#950,#952,#953))
REPRESENTATION_CONTEXT('','3D')
);
#950=(
LENGTH_UNIT()
NAMED_UNIT(*)
SI_UNIT(.MILLI.,.METRE.)
);
#951=(
LENGTH_UNIT()
NAMED_UNIT(*)
SI_UNIT($,.METRE.)
);
#952=(
NAMED_UNIT(*)
PLANE_ANGLE_UNIT()
SI_UNIT($,.RADIAN.)
);
#953=(
NAMED_UNIT(*)
SI_UNIT($,.STERADIAN.)
SOLID_ANGLE_UNIT()
);
#954=SHAPE_DEFINITION_REPRESENTATION(#955,#956);
#955=PRODUCT_DEFINITION_SHAPE('',$,#958);
#956=SHAPE_REPRESENTATION('',(#536),#948);
#957=PRODUCT_DEFINITION_CONTEXT('part definition',#962,'design');
#958=PRODUCT_DEFINITION('2026-08-04-09-49-26-109','\X2\881552A86CF5\X0\',
#959,#957);
#959=PRODUCT_DEFINITION_FORMATION('',$,#964);
#960=PRODUCT_RELATED_PRODUCT_CATEGORY('\X2\881552A86CF5\X0\',
'\X2\881552A86CF5\X0\',(#964));
#961=APPLICATION_PROTOCOL_DEFINITION('international standard',
'automotive_design',2009,#962);
#962=APPLICATION_CONTEXT(
'Core Data for Automotive Mechanical Design Process');
#963=PRODUCT_CONTEXT('part definition',#962,'mechanical');
#964=PRODUCT('2026-08-04-09-49-26-109','\X2\881552A86CF5\X0\',$,(#963));
#965=PRESENTATION_STYLE_ASSIGNMENT((#966));
#966=SURFACE_STYLE_USAGE(.BOTH.,#967);
#967=SURFACE_SIDE_STYLE('',(#968));
#968=SURFACE_STYLE_FILL_AREA(#969);
#969=FILL_AREA_STYLE('\X2\94A2\X0\ - \X2\7F0E5149\X0\',(#970));
#970=FILL_AREA_STYLE_COLOUR('\X2\94A2\X0\ - \X2\7F0E5149\X0\',#971);
#971=COLOUR_RGB('\X2\94A2\X0\ - \X2\7F0E5149\X0\',0.627450980392157,0.627450980392157,
0.627450980392157);
ENDSEC;
END-ISO-10303-21;
